<?xml version="1.0" encoding="UTF-8" standalone="no"?>
<svg
   height="226.13776"
   width="453.10001"
   style="shape-rendering:crispEdges"
   version="1.1"
   id="svg68"
   sodipodi:docname="tricksterMode.svg"
   inkscape:version="1.2.1 (9c6d41e410, 2022-07-14)"
   xmlns:inkscape="http://www.inkscape.org/namespaces/inkscape"
   xmlns:sodipodi="http://sodipodi.sourceforge.net/DTD/sodipodi-0.dtd"
   xmlns="http://www.w3.org/2000/svg"
   xmlns:svg="http://www.w3.org/2000/svg">
  <defs
     id="defs72" />
  <sodipodi:namedview
     id="namedview70"
     pagecolor="#ffffff"
     bordercolor="#666666"
     borderopacity="1.0"
     inkscape:showpageshadow="2"
     inkscape:pageopacity="0.0"
     inkscape:pagecheckerboard="0"
     inkscape:deskcolor="#d1d1d1"
     showgrid="false"
     inkscape:zoom="2.3850105"
     inkscape:cx="232.49373"
     inkscape:cy="102.72491"
     inkscape:window-width="1920"
     inkscape:window-height="1057"
     inkscape:window-x="-8"
     inkscape:window-y="-8"
     inkscape:window-maximized="1"
     inkscape:current-layer="svg68" />
  <g
     id="g2263"
     transform="rotate(1.2076468,411.55885,43.538096)">
    <path
       d="m 186.3,-146.15 0.05,1 h -1 v 1 h 2 l 0.05,1 2,-0.05 v 1 l 2,-0.05 0.05,1 2,-0.1 v 1 l 2,-0.05 0.05,1 2,-0.05 v 1 h 1 v 1 l 1,-0.05 0.05,1 h 1 l 0.1,6 h -1 l 0.05,2 -1,0.05 0.05,1 -3,0.05 v 1 l -3,0.05 0.05,1 -18,0.45 -0.05,-1 -4,0.1 v -1 l -5,0.1 v 1 l -1,0.05 0.05,1 h -1 v 1 l -2,0.05 0.05,1 -2,0.05 v 1 l -10,0.2 0.05,1 -7,0.2 -0.05,-1 -4,0.05 v -1 l -7,0.2 -0.05,-1 -2,0.05 v -1 l -3,0.1 -0.05,-1 -3,0.05 v -1 l -3,0.05 -0.05,-1 -4,0.1 v -1 l -2,0.05 v -1 l -2,0.05 -0.05,-1 h -1 l -0.05,-3 -1,0.05 -0.1,-3 1,-0.05 v -2 h 1 l -0.05,-1 1,-0.05 -0.05,-2 h 1 v -1 l 5,-0.1 v 1 h -1 l 0.1,3 -1,0.05 v 1 h -1 v 1 h -1 l 0.1,3 h 1 v 1 h 1 l 0.05,1 2,-0.05 v 1 l 2,-0.05 0.05,1 3,-0.1 v 1 h 2 v 1 l 4,-0.1 0.05,1 4,-0.1 v 1 l 3,-0.1 0.05,1 8,-0.2 v 1 h 1 v -1 l 3,-0.1 v 1 l 5,-0.1 v -1 l 3,-0.05 -0.05,-1 3,-0.05 v -1 l 1,-0.05 -0.05,-2 h 1 v -1 h -1 l -0.05,-1 -1,0.05 v -1 h -1 l -0.05,-1 -2,0.05 v -1 l -3,0.05 -0.05,-1 -3,0.1 v -1 h -1 l -0.05,-1 h -1 v -1 l -1,0.05 v -1 h -1 v 1 l -2,0.05 v -1 h 1 l -0.05,-1 -2,0.05 v -1 h -1 v 1 l -2,0.05 0.05,1 h -1 l -0.05,-2 h 2 l -0.05,-2 5,-0.15 h 1 l 0.05,2 3,-0.05 -0.05,-1 1,-0.05 v -1 l 2,-0.05 -0.05,-2 h 1 l 3,-0.1 v 1 l 0.05,1 -1,0.05 0.05,2 h -1 v 1 l -1,0.05 0.05,2 2,-0.05 v 1 l 3,-0.05 0.05,1 2,-0.05 v 1 l 1,-0.05 0.05,1 h 1 v 1 l 1,-0.05 0.05,2 h 1 l 0.05,1 2,-0.05 v 1 l 8,-0.2 v 1 l 15,-0.3 v -1 l 2,-0.1 -0.05,-1 1,-0.05 v -1 h 1 l -0.1,-5 -3,0.1 -0.05,-1 -1,0.05 v -1 l -3,0.05 v -1 l -1,0.05 v 1 h -2 v -1 h 1 l -0.05,-1 -2,0.05 v -1 h -1 v 1 l -1,0.05 -0.05,-2 -3,0.05 0.05,1 -2,0.05 v 1 h -1 l -0.05,-2 h 2 l -0.05,-2 1,-0.05 v -1 l 3,-0.05 -0.05,-1 4,-0.1 m -35.75,10.8 v 1 h -1 l 0.05,1 -2,0.05 v 1 l -1,0.05 0.05,2 -2,0.05 v -1 l -2,0.05 -0.05,-1 h -2 v -1 l -4,0.15 -0.1,-4 2,-0.1 v -1 l 2,-0.05 v 1 l -2,0.05 0.05,2 -1,0.05 v 1 l 4,-0.1 v -1 l 2,-0.05 -0.05,-1 h 1 v -1 l 1,-0.05 v 1 l -1,0.05 0.05,1 h -1 v 1 l -2,0.05 0.05,1 h 1 v 1 l 4,-0.1 v -1 l 1,-0.05 -0.05,-1 2,-0.05 v -1 h 1 m 34.95,-2.8 v 1 l -2,0.05 0.05,1 h 1 v 1 l -2,0.05 0.05,1 h -1 l -0.05,-1 -2,0.05 v -1 l -4,0.1 -0.05,-1 -2,0.05 v -1 l 1,-0.05 v -1 h 1 l -0.05,-1 1,-0.05 0.05,1 -1,0.05 v 2 l 3,-0.05 v -1 l 1,-0.05 0.05,2 2,-0.05 -0.05,-1 2,-0.05 v -1 l 2,-0.05 m -3.05,-1.9 0.05,1 -2,0.05 -0.05,-1 2,-0.05 m -2.95,2.05 v -1 h 1 v 1 h -1"
       fill="#f8634f"
       fill-rule="evenodd"
       stroke="none"
       id="path4"
       transform="translate(215.45,347.45)" />
    <path
       d="m 163,-202.65 h -1 l 0.05,2 -1,0.05 v 1 l 1,-0.05 v -1 l 2,-0.05 v 1 h 1 l 0.05,2 1,-0.05 0.05,2 3,-0.05 0.1,3 -2,0.05 v 1 l -2,0.05 v -1 h -1 v 1 l -1,0.05 v 1 h -1 l 0.05,1 -9,0.2 -0.05,-1 -2,0.05 v -1 l -1,0.05 v -1 h -1 l -0.05,-2 8,-0.2 -0.05,-1 h 2 v -1 l -3,0.05 v 1 l -7,0.15 v -1 h -1 l -0.05,-1 -1,0.05 v -1 h -1 l -0.05,-3 -1,0.05 -0.05,-1 h -1 l -0.1,-4 h 1 v -1 l 1,-0.05 -0.05,-1 h 1 v -1 l 1,-0.05 -0.05,-2 h 1 l -0.05,-2 2,-0.05 v -1 l 8,-0.15 v 1 l 1,-0.05 0.1,3 h 1 v 2 l 1,-0.05 0.05,2 h 1 l 0.1,4 m -13.15,-5.7 v -1 l 1,-0.05 v 1 h 1 v -1 h -1 v -1 l -1,0.05 v 1 h -1 v 1 h 1 m 8,-2.2 h -1 v 1 l -1,0.05 v 1 l 1,-0.05 v -1 h 1 v 1 h 1 v -1 h -1 v -1 m -8.9,5.2 h -1 l 0.1,4 h 1 v 2 h 1 l 0.05,1 5,-0.15 -0.05,-1 h 1 v -1 l 1,-0.05 v -1 h 1 l -0.15,-5 -9,0.2 0.05,1 m 1.6,70 h 1 v 1 l 3,-0.1 0.05,1 3,-0.05 v 1 l 2,-0.05 0.05,1 h 1 v 1 l 1,-0.05 0.05,1 h 1 v 1 h -1 l 0.05,2 -1,0.05 v 1 l -3,0.05 0.05,1 -3,0.05 v 1 l -5,0.1 v -1 l -3,0.1 v 1 h -1 v -1 l -8,0.2 -0.05,-1 -3,0.1 v -1 l -4,0.1 -0.05,-1 -4,0.1 v -1 h -2 v -1 l -3,0.1 -0.05,-1 -2,0.05 v -1 l -2,0.05 -0.05,-1 h -1 v -1 h -1 l -0.1,-3 h 1 v -1 h 1 v -1 l 1,-0.05 -0.1,-3 h 1 v -1 l 4,-0.1 v 1 l 16,-0.4 v -1 l 3,-0.05 0.05,2 h -2 l 0.05,2 -2,0.05 v 1 l -2,0.1 0.1,4 4,-0.15 v 1 h 2 l 0.05,1 2,-0.05 v 1 l 2,-0.05 -0.05,-2 1,-0.05 v -1 l 2,-0.05 -0.05,-1 h 1 v -1 m 34.95,-2.8 h 2 v -1 l 1,-0.05 v 1 l 3,-0.05 v 1 l 1,-0.05 0.05,1 3,-0.1 0.1,5 h -1 v 1 l -1,0.05 0.05,1 -2,0.1 v 1 l -15,0.3 v -1 l -8,0.2 v -1 l -2,0.05 -0.05,-1 h -1 l -0.05,-2 -1,0.05 v -1 h -1 l -0.05,-1 -1,0.05 v -1 l -2,0.05 -0.05,-1 -3,0.05 v -1 l -2,0.05 -0.05,-2 1,-0.05 v -1 h 1 l -0.05,-2 1,-0.05 -0.05,-1 7,-0.15 0.05,1 9,-0.2 -0.05,-1 4,-0.05 0.05,2 h -2 l 0.05,2 -1,0.05 0.05,1 h -1 v 1 l -1,0.05 v 1 l 2,-0.05 0.05,1 4,-0.1 v 1 l 2,-0.05 0.05,1 h 1 l -0.05,-1 2,-0.05 v -1 h -1 l -0.05,-1 2,-0.05 v -1"
       fill="#ffaca1"
       fill-rule="evenodd"
       stroke="none"
       id="path6"
       transform="translate(215.45,347.45)" />
    <path
       d="m 189.3,-190.25 0.35,17 h 1 l 0.4,14 1,-0.05 0.15,8 1,-0.05 0.1,3 -2,0.1 v 1 l -3,0.05 v 1 l -2,0.05 -4,0.1 0.05,1 -3,0.05 v 1 l -1,0.05 -4,0.05 0.05,1 -9,0.2 -0.05,-1 -7,0.15 v -1 l -3,0.1 -0.05,-1 -2,0.05 0.05,1 h -1 v 1 l -5,0.1 0.05,1 -5,0.15 -3,0.05 v 1 l -16,0.4 v -1 l -4,0.1 -5,0.1 -0.05,-1 -3,0.05 v -1 l -1,0.05 -0.15,-7 h -1 l -0.9,-38 h 1 l 2,-0.05 v 1 l 3,-0.05 3,-0.1 0.05,1 3,-0.05 v 1 l 6,-0.15 0.05,1 6,-0.1 v 1 l 1,-0.05 v -1 l 2,-0.05 v 1 l 8,-0.2 0.05,1 17,-0.4 -0.05,-1 13,-0.3 v -1 l 7,-0.15 -0.05,-1 2,-0.05 v -1 l 2,-0.05 h 2 l -0.05,-1 2,-0.05 v -1 l 1,-0.05 m -62.65,16.45 v 2 l -1,0.05 0.05,2 h -1 l 0.05,2 -1,0.05 0.05,1 h -1 v 1 h -1 l 0.05,1 -2,0.05 v 1 l -3,0.1 v 1 l -5,0.1 0.1,1 1,-0.05 0.3,13 h 1 l 0.05,2 4,-0.1 v 1 l 5,-0.1 v 1 l 17,-0.45 v -1 l 5,-0.1 v -1 l 5,-0.1 -0.05,-1 2,-0.05 -0.15,-7 -3,0.05 v -1 l -3,0.1 -0.05,-1 15,-0.35 0.05,1 -6,0.15 0.15,7 3,-0.1 v 1 h 2 l 0.05,1 6,-0.15 v 1 l 6,-0.15 v -1 l 7,-0.15 -0.05,-1 3,-0.05 v -1 l 2,-0.05 -0.05,-1 3,-0.05 -0.1,-4 h -1 l -0.3,-12 -2,0.05 v -1 l -3,0.05 -0.05,-1 -2,0.05 v -1 l -1,0.05 -0.05,-1 h -2 l -0.05,-4 -1,0.05 v 1 l -39,0.9 v -1 l -9,0.2 m -1,2.05 -0.05,-3 -7,0.15 v -1 l -5,0.1 -0.05,-1 h -1 l 0.25,11 h 1 l 0.05,1 -2,0.05 v 1 l 5,-0.1 v -1 l 3,-0.1 -0.05,-1 2,-0.05 -0.05,-2 h 2 l -0.05,-2 1,-0.05 -0.05,-2 h 1 m 56.95,-4.35 0.05,1 -2,0.05 v 1 l -4,0.1 0.05,2 h 1 v 1 l 1,-0.05 0.05,1 2,-0.05 v 1 l 3,-0.05 0.05,1 2,-0.05 -0.05,-1 h -1 l -0.15,-7 -2,0.05"
       fill="#175dd2"
       fill-rule="evenodd"
       stroke="none"
       id="path8"
       transform="translate(215.45,347.45)" />
    <path
       d="m 122.25,-232.65 1,-0.05 0.05,1 h 1 v 0.95 l 1,-0.05 0.05,1 2,-0.05 v 1 l 2,-0.05 0.05,1 h 1 v 1 h 1 v 1 l 2,-0.05 0.05,1 2,-0.05 v 1 l 2,-0.1 0.05,1 3,-0.05 v 1 l 3,-0.1 0.05,1 4,-0.1 v 1 l 5,-0.1 0.05,1 24,-0.5 -0.05,-1 4,-0.1 v -1 l 2,-0.05 0.75,33 1,-0.05 0.05,1 -2,0.05 v 1 l -2,0.05 0.05,1 -7,0.15 v 1 l -13,0.3 0.05,1 -17,0.4 -0.05,-1 -8,0.2 v -1 l -2,0.05 v 1 l -1,0.05 v -1 l -6,0.1 -0.05,-1 -6,0.15 v -1 l -3,0.05 -0.05,-1 -3,0.1 -0.15,-8 1,-0.05 -0.3,-14 h 1 l -0.05,-2 1,-0.05 -0.2,-6 h 1 l -0.1,-5 1,-0.05 -0.05,-2 h 1 l -0.05,-3 1,-0.05 -0.05,-2 h 1 l -0.05,-1.95 h 1 l -0.05,-1 m 41.65,24.95 -1,0.05 -0.05,-1 h -1 l -0.05,-4 -1,0.05 -0.05,-1 h -1 v -1 l -1,0.05 -0.05,-1 -9,0.2 0.05,1 h -1 v 1 h -1 l 0.05,1 -1,0.05 0.05,2 h -1 v 1 l -1,0.05 v 1 h -1 l 0.05,1 -1,0.05 0.1,5 1,-0.05 0.05,2 h 1 l 0.05,3 1,-0.05 0.05,1 h 1 v 1 l 1,-0.05 0.1,3 h 1 v 2 h 1 l 0.05,1 2,-0.05 v 1 l 10,-0.25 v -1 l 2,-0.05 -0.05,-1 4,-0.05 v -1 l 2,-0.05 -0.05,-2 1,-0.05 -0.05,-2 -1,0.05 v -1 l -3,0.05 -0.05,-1 h -1 l -0.05,-2 -1,0.05 v -2 h -1 l -0.15,-6 m -23.4,69.55 h 1 l -0.05,-1 2,-0.05 v -1 h 1 v 1 l 2,-0.05 0.05,1 h -1 v 1 l 2,-0.05 v -1 h 1 v 1 l 1,-0.05 v 1 h 1 l 0.05,1 h -1 v 1 l -2,0.05 0.05,1 -1,0.05 v 1 l -4,0.1 v -1 h -1 l -0.05,-1 2,-0.05 v -1 h 1 l -0.05,-1 1,-0.05 v -1 l -1,0.05 v 1 h -1 l 0.05,1 -2,0.05 v 1 l -4,0.1 v -1 l 1,-0.05 -0.05,-2 2,-0.05 v -1 m 35.95,-1.8 h 1 v -1 l 2,-0.05 -0.05,-1 3,-0.05 0.05,2 1,-0.05 v -1 h 1 v 1 l 2,-0.05 0.05,1 h -1 v 1 l -2,0.05 v 1 l -2,0.05 0.05,1 -2,0.05 -0.05,-2 -1,0.05 v 1 l -3,0.05 v -2 l 1,-0.05 -0.05,-1 m 6,-0.1 -2,0.05 0.05,1 2,-0.05 -0.05,-1 m -2.95,2.05 h 1 v -1 h -1 v 1"
       fill="#9dc2ff"
       fill-rule="evenodd"
       stroke="none"
       id="path10"
       transform="translate(215.45,347.45)" />
    <path
       d="m 126.65,-173.8 9,-0.2 v 1 l 39,-0.9 v -1 l 1,-0.05 0.05,4 h 2 l 0.05,1 1,-0.05 v 1 l 2,-0.05 0.05,1 3,-0.05 v 1 l 2,-0.05 0.3,12 h 1 l 0.1,4 -3,0.05 0.05,1 -2,0.05 v 1 l -3,0.05 0.05,1 -7,0.15 v 1 l -6,0.15 v -1 l -6,0.15 -0.05,-1 h -2 v -1 l -3,0.1 -0.15,-7 6,-0.15 -0.05,-1 -15,0.35 0.05,1 3,-0.1 v 1 l 3,-0.05 0.15,7 -2,0.05 0.05,1 -5,0.1 v 1 l -5,0.1 v 1 l -17,0.45 v -1 l -5,0.1 v -1 l -4,0.1 -0.05,-2 h -1 l -0.3,-13 -1,0.05 -0.1,-1 5,-0.1 v -1 l 3,-0.1 v -1 l 2,-0.05 -0.05,-1 h 1 v -1 h 1 l -0.05,-1 1,-0.05 -0.05,-2 h 1 l -0.05,-2 1,-0.05 v -2"
       fill="#5d9aff"
       fill-rule="evenodd"
       stroke="none"
       id="path12"
       transform="translate(215.45,347.45)" />
    <path
       d="m 125.65,-171.75 h -1 l 0.05,2 -1,0.05 0.05,2 h -2 l 0.05,2 -2,0.05 0.05,1 -3,0.1 v 1 l -5,0.1 v -1 l 2,-0.05 -0.05,-1 h -1 l -0.25,-11 h 1 l 0.05,1 5,-0.1 v 1 l 7,-0.15 0.05,3 m 56.95,-4.35 2,-0.05 0.15,7 h 1 l 0.05,1 -2,0.05 -0.05,-1 -3,0.05 v -1 l -2,0.05 -0.05,-1 -1,0.05 v -1 h -1 l -0.05,-2 4,-0.1 v -1 l 2,-0.05 -0.05,-1"
       fill="#2376ff"
       fill-rule="evenodd"
       stroke="none"
       id="path14"
       transform="translate(215.45,347.45)" />
    <path
       d="m 163.9,-207.7 0.15,6 h 1 v 2 l 1,-0.05 0.05,2 h 1 l 0.05,1 3,-0.05 v 1 l 1,-0.05 0.05,2 -1,0.05 0.05,2 -2,0.05 v 1 l -4,0.05 0.05,1 -2,0.05 v 1 l -10,0.25 v -1 l -2,0.05 -0.05,-1 h -1 v -2 h -1 l -0.1,-3 -1,0.05 v -1 h -1 l -0.05,-1 -1,0.05 -0.05,-3 h -1 l -0.05,-2 -1,0.05 -0.1,-5 1,-0.05 -0.05,-1 h 1 v -1 l 1,-0.05 v -1 h 1 l -0.05,-2 1,-0.05 -0.05,-1 h 1 v -1 h 1 l -0.05,-1 9,-0.2 0.05,1 1,-0.05 v 1 h 1 l 0.05,1 1,-0.05 0.05,4 h 1 l 0.05,1 1,-0.05 m -0.9,5.05 -0.1,-4 h -1 l -0.05,-2 -1,0.05 v -2 h -1 l -0.1,-3 -1,0.05 v -1 l -8,0.15 v 1 l -2,0.05 0.05,2 h -1 l 0.05,2 -1,0.05 v 1 h -1 l 0.05,1 -1,0.05 v 1 h -1 l 0.1,4 h 1 l 0.05,1 1,-0.05 0.05,3 h 1 v 1 l 1,-0.05 0.05,1 h 1 v 1 l 7,-0.15 v -1 l 3,-0.05 v 1 h -2 l 0.05,1 -8,0.2 0.05,2 h 1 v 1 l 1,-0.05 v 1 l 2,-0.05 0.05,1 9,-0.2 -0.05,-1 h 1 v -1 l 1,-0.05 v -1 h 1 v 1 l 2,-0.05 v -1 l 2,-0.05 -0.1,-3 -3,0.05 -0.05,-2 -1,0.05 -0.05,-2 h -1 v -1 l -2,0.05 v 1 l -1,0.05 v -1 l 1,-0.05 -0.05,-2 h 1 m -5.15,-7.9 v 1 h 1 v 1 h -1 v -1 h -1 v 1 l -1,0.05 v -1 l 1,-0.05 v -1 h 1 m -8,2.2 h -1 v -1 h 1 v -1 l 1,-0.05 v 1 h 1 v 1 h -1 v -1 l -1,0.05 v 1 m 6.2,7.85 v 1 h -1 l 0.05,1 -5,0.15 -0.05,-1 h -1 v -2 h -1 l -0.1,-4 h 1 l 0.05,3 h 1 l 0.05,2 1,-0.05 v 1 l 3,-0.05 v -1 l 2,-0.05 v -1 l 1,-0.05 -0.1,-4 -8,0.2 -0.05,-1 9,-0.2 0.15,5 h -1 v 1 l -1,0.05"
       fill="#e7533f"
       fill-rule="evenodd"
       stroke="none"
       id="path16"
       transform="translate(215.45,347.45)" />
    <path
       d="m 186.55,-222.2 0.2,7 h 1 l 0.5,22 1,-0.05 0.05,3 -1,0.05 v 1 l -2,0.05 0.05,1 h -2 l -0.05,-1 -1,0.05 -0.75,-33 4,-0.1 m -77.25,33.8 -0.25,-11 1,-0.05 -0.3,-14 h 1 l -0.05,-2 1,-0.05 -0.2,-6 h 1 l -0.1,-5 h 1 l -0.05,-2 1,-0.05 -0.1,-3.95 h 1 v -1 l 1,-0.05 -0.05,-2 h 1 v -1 l 1,-0.05 v 1 l 2,-0.05 v 1 h 1 l 0.05,1 h 1 v 1 l 0.05,1 h -1 l 0.05,1.95 h -1 l 0.05,2 -1,0.05 0.05,3 h -1 l 0.05,2 -1,0.05 0.1,5 h -1 l 0.2,6 -1,0.05 0.05,2 h -1 l 0.3,14 -1,0.05 0.15,8 -3,0.05 v -1 l -2,0.05"
       fill="#5990eb"
       fill-rule="evenodd"
       stroke="none"
       id="path18"
       transform="translate(215.45,347.45)" />
    <path
       d="m 221.3,-277 0.2,7 -4,0.1 -0.2,-7 4,-0.1 m -3.4,26.1 0.1,3 h -1 v 2 l -1,0.05 0.05,2 h -1 l 0.05,1 -1,0.05 v 1 h -1 l 0.05,1 -1,0.05 0.05,2 h -1 v 1 h -1 v 1 l -1,0.05 0.05,1 h -1 v 1 l -1,0.05 0.05,1 h -1 v 0.95 l -1,0.05 0.05,1 -2,0.05 v 1 h -2 l 0.05,1 -1,0.05 v 1 l -2,0.05 v 1 l -2,0.05 0.05,1 -2,0.05 v 1 l -3,0.1 0.05,1 -3,0.05 v 1 l -2,0.05 0.05,1 -4,0.1 -2,0.05 v 1 l -4,0.1 0.05,1 -24,0.5 -0.05,-1 -5,0.1 v -1 l -4,0.1 -0.05,-1 -3,0.1 v -1 l -3,0.05 -0.05,-1 -2,0.1 v -1 l -2,0.05 -0.05,-1 -2,0.05 v -1 h -1 v -1 h -1 l -0.05,-1 -2,0.05 v -1 l -2,0.05 -0.05,-1 -1,0.05 v -0.95 h -1 l -0.05,-1 -1,0.05 v -1 h -1 l -0.05,-1 h -1 v -1 l -2,0.05 v -1 l -1,0.05 -0.05,-2 h -1 l -0.05,-1 -1,0.05 v -1 h -1 l -0.05,-2 -1,0.05 -0.05,-1 h -1 v -2 h -1 l -0.05,-1 -1,0.05 -0.05,-2 h -1 l -0.05,-2 -1,0.05 -0.05,-2 1,-0.05 0.05,1 h 1 v 1 l 3,-0.05 1,-0.05 0.05,2 h 1 l 0.05,2 1,-0.05 0.05,2 h 1 v 1 l 1,-0.05 0.05,1 h 1 l 0.05,2 1,-0.05 v 1 h 1 l 0.05,1 h 1 v 1 l 1,-0.05 0.05,1 h 1 v 1 l 1,-0.05 v 1 l 2,-0.05 0.05,1 h 1 v 1 l 1,-0.05 0.05,1 h 2 v 0.95 l 2,-0.05 0.05,1 1,-0.05 v 1 h 1 l 0.05,1 2,-0.1 v 1 l 3,-0.05 v 1 l 3,-0.1 0.05,1 5,-0.1 v 1 l 4,-0.1 0.05,1 23,-0.5 -0.05,-1 6,-0.15 v -1 l 3,-0.05 -0.05,-1 3,-0.05 v -1 l 2,-0.05 v -1 l 3,-0.15 -0.05,-1 3,-0.05 v -1 h 1 l -0.05,-1 2,-0.05 v -0.95 l 2,-0.05 -0.05,-1 1,-0.05 v -1 h 1 l -0.05,-1 2,-0.05 v -1 h 1 v -1 l 1,-0.05 -0.05,-1 h 1 v -1 l 1,-0.05 -0.05,-1 h 1 v -1 l 1,-0.05 -0.05,-2 h 1 l -0.05,-2 h 1 l -0.05,-2 1,-0.05 v -1 h 1 l -0.05,-1 4,-0.1 m -78.95,2.8 h -1 l -0.05,-1 h 1 l 0.05,1"
       fill="#ffc990"
       fill-rule="evenodd"
       stroke="none"
       id="path20"
       transform="translate(215.45,347.45)" />
    <path
       d="m 208.05,-287.7 3,-0.05 -0.05,-1 1,-0.05 0.05,1 2,-0.05 0.1,4 h 1 l 0.05,3 -4,0.1 0.05,2 5,-0.15 0.05,2 h 1 l 0.2,7 -22,0.5 v 1 l -2,0.05 0.05,1 h -1 l 0.4,18 h -1 l 0.05,3 h 2 v -1 l 5,-0.15 -0.05,-1 2,-0.05 v -1 h 2 l -0.05,-1 3,-0.1 v -1 l 8,-0.15 v 1 l 0.05,1 h -1 v 1 l -1,0.05 0.05,2 h -1 l 0.05,2 h -1 l 0.05,2 -1,0.05 v 1 h -1 l -0.05,-2 -1,0.05 v -1 l -6,0.1 v 1 l -2,0.05 0.1,3 2,-0.05 v 1 l 4,-0.05 v -1 l 2,-0.05 v 1 h -1 l 0.05,1 -1,0.05 v 1 h -1 v 1 l -2,0.05 0.05,1 h -1 v 1 l -1,0.05 0.05,1 -2,0.05 v 0.95 l -2,0.05 0.05,1 h -1 v 1 l -3,0.05 0.05,1 -3,0.15 v 1 l -2,0.05 v 1 l -3,0.05 0.05,1 -3,0.05 v 1 l -6,0.15 0.05,1 -23,0.5 -0.05,-1 -4,0.1 v -1 l -5,0.1 -0.05,-1 -3,0.1 v -1 l -3,0.05 v -1 l -2,0.1 -0.05,-1 h -1 v -1 l -1,0.05 -0.05,-1 -2,0.05 v -0.95 h -2 l -0.05,-1 -1,0.05 v -1 h -1 l -0.05,-1 -2,0.05 v -1 l -1,0.05 v -1 h -1 l -0.05,-1 -1,0.05 v -1 h -1 l -0.05,-1 h -1 v -1 l -1,0.05 -0.05,-2 h -1 l -0.05,-1 -1,0.05 v -1 h -1 l -0.05,-2 -1,0.05 -0.05,-2 h -1 l -0.05,-2 -1,0.05 -0.1,-6 1,-0.05 -0.55,-21 7,-0.15 9,-0.2 0.05,1 8,-0.25 -0.05,-1 9,-0.2 h 1 v -1 l 4,-0.1 h 1 l -0.05,-1 3,-0.1 v -1 l 4,-0.05 v -1 l 3,-0.1 -0.05,-1 2,-0.05 0.1,5 h 1 l 0.15,5 h 1 l 0.15,6 1,-0.05 v -1 h 1 l -0.05,-1 3,-0.1 v -1 h 1 l -0.05,-1 2,-0.05 v -1 l 3,-0.05 -0.05,-1 3,-0.1 -0.05,-1 h 1 v -1 l 2,-0.05 -0.05,-1 2,-0.05 h 1 v -1 l 1,-0.05 2,-0.05 -0.05,-1 2,-0.05 v -1 l 3,-0.1 -0.05,-1 h 1 v -1 l 3,-0.1 h 1 v -1 l 3,-0.05 -0.05,-1 2,-0.05 v -1 l 2,-0.05 -0.05,-1 2,-0.05 v -1 m -2.2,34.05 -4,0.1 v 1 l -4,0.1 0.05,1 h -1 l -0.1,-3 2,-0.05 v -1 l 3,-0.05 v -1 l 18,-0.4 v 1 l 4,-0.1 v 1 l 2,-0.05 0.1,3 -1,0.05 -0.05,-1 -3,0.05 v -1 l -5,0.1 -0.05,-1 -11,0.25 0.05,1 m -16.8,9.45 h -1 v 1 l -24,0.55 v -1 l -2,0.05 -0.05,-1 -2,0.05 0.1,3 2,-0.05 v 1 l 1,-0.05 0.05,1 h 1 l 0.05,2 1,-0.05 v 1 h 1 v 1 h 1 l 0.05,1 2,-0.05 v 1 l 1,-0.05 -0.05,-2 -1,0.05 v -1 l 4,-0.1 v 1 l 1,-0.05 0.05,1 h 1 l -0.05,-2 4,-0.1 v 1 h 1 l 0.05,1 1,-0.05 -0.05,-2 4,-0.05 v 1 l 1,-0.05 0.05,1 h 1 l -0.05,-2 h -1 l -0.05,-2 h 1 l -0.05,-2 2,-0.05 v -1 l 2,-0.05 -0.1,-3 -2,0.05 0.05,1 m 19.05,2.5 0.05,1 -1,0.05 -0.05,-1 1,-0.05 m -85.8,-33 5,-0.1 -0.05,-2 -7,0.15 v 1 l -2,0.05 0.05,1 h -1 v 1 l -1,0.05 0.1,1 h -1 l 0.05,4 2,-0.05 -0.05,-2 h 1 v -1 l 1,-0.05 v -1 h 1 l -0.1,-1 2,-0.05 v -1 m 16.65,26.6 4,-0.1 v 1 l 5,-0.1 0.05,1 2,-0.05 v 1 l 2,-0.05 v 1 l 3,-0.05 v -2 h -1 l -0.45,-20 -1,0.05 -0.05,-1 -2,0.05 v -1 l -29,0.7 v 1 l -3,0.05 0.05,1 h -1 l 0.05,3 -1,0.05 0.4,17 5,-0.1 -0.05,-1 3,-0.1 v -1 l 4,-0.1 -0.05,-1 9,-0.25 0.05,1 h 1 m -13.15,-4.65 v -1 l 17,-0.45 v 1 l 5,-0.1 0.05,1 2,-0.05 0.05,3 -1,0.05 v -1 l -3,0.05 -0.05,-1 -4,0.1 v -1 l -14,0.35 v 1 l -4,0.1 0.05,1 -2,0.05 v 1 h -1 l -0.05,-3 2,-0.05 -0.05,-1 3,-0.05 m 18.3,12.55 -0.05,-3 -2,0.05 -0.05,-1 -3,0.05 v -1 l -5,0.15 v 1 l -3,0.1 0.05,1 h -1 l 0.05,3 3,-0.05 0.05,1 8,-0.25 -0.05,-1 3,-0.05"
       fill="#ffeace"
       fill-rule="evenodd"
       stroke="none"
       id="path22"
       transform="translate(215.45,347.45)" />
    <path
       d="m 207.15,-240.65 -2,0.05 v 1 l -4,0.05 v -1 l -2,0.05 -0.1,-3 2,-0.05 v -1 l 6,-0.1 v 1 l 1,-0.05 0.05,2 -1,0.05 0.05,1 m -63.05,0.45 -3,0.05 0.05,1 -8,0.25 -0.05,-1 -3,0.05 -0.05,-3 h 1 l -0.05,-1 3,-0.1 v -1 l 5,-0.15 v 1 l 3,-0.05 0.05,1 2,-0.05 0.05,3"
       fill="#ff9267"
       fill-rule="evenodd"
       stroke="none"
       id="path24"
       transform="translate(215.45,347.45)" />
    <path
       d="m 224.2,-281.05 0.05,2 1,-0.05 0.05,2 h 1 l 0.05,2 -3,0.05 -0.05,-2 -0.05,-1 -1,0.05 h -1 v -1 l -5,0.1 -5,0.15 -0.05,-2 4,-0.1 9,-0.2 m -2.7,11.05 3,-0.05 v 1 l 3,-0.1 0.05,1 h 1 v 1 h 1 l 0.45,19 -5,0.1 -0.05,-1 -3,0.05 v -1 l -3,0.05 -0.05,-1 -1,0.05 -4,0.1 v -1 l -8,0.15 v 1 l -3,0.1 0.05,1 h -2 v 1 l -2,0.05 0.05,1 -5,0.15 v 1 h -2 l -0.05,-3 h 1 l -0.4,-18 h 1 l -0.05,-1 2,-0.05 v -1 l 22,-0.5 4,-0.1 m 0.1,4 -0.05,-1 -24,0.55 0.05,1 h -1 l 0.2,9 2,-0.05 -0.05,-1 4,-0.05 v -1 l 17,-0.4 v 1 l 3,-0.05 0.05,1 3,-0.1 -0.2,-8 -1,0.05 v -1 l -3,0.05 m -18.85,7.45 -3,0.05 -0.05,-1 h -1 v -1 l -1,0.05 -0.1,-4 1,-0.05 v -1 l 5,-0.1 v 1 h 1 l 0.1,4 h -1 v 1 l -1,0.05 0.05,1 m -0.15,-5 v -1 h -1 l 0.05,2 2,-0.05 -0.05,-1 -1,0.05 m 3.25,9.9 -0.05,-1 11,-0.25 0.05,1 5,-0.1 v 1 l 3,-0.05 0.05,1 1,-0.05 -0.1,-3 -2,0.05 v -1 l -4,0.1 v -1 l -18,0.4 v 1 l -3,0.05 v 1 l -2,0.05 0.1,3 h 1 l -0.05,-1 4,-0.1 v -1 l 4,-0.1 m -16.8,9.45 -0.05,-1 2,-0.05 0.1,3 -2,0.05 v 1 l -2,0.05 0.05,2 h -1 l 0.05,2 h 1 l 0.05,2 h -1 l -0.05,-1 -1,0.05 v -1 l -4,0.05 0.05,2 -1,0.05 -0.05,-1 h -1 v -1 l -4,0.1 0.05,2 h -1 l -0.05,-1 -1,0.05 v -1 l -4,0.1 v 1 l 1,-0.05 0.05,2 -1,0.05 v -1 l -2,0.05 -0.05,-1 h -1 v -1 h -1 v -1 l -1,0.05 -0.05,-2 h -1 l -0.05,-1 -1,0.05 v -1 l -2,0.05 -0.1,-3 2,-0.05 0.05,1 2,-0.05 v 1 l 24,-0.55 v -1 h 1 m -23.95,3.5 0.05,2 h 1 l 0.05,1 h 1 v 1 l 1,-0.05 v -1 l 2,-0.05 -0.05,-1 h 1 l -0.05,-2 -6,0.1 m 8,-0.15 0.1,3 4,-0.1 -0.05,-1 h 1 v -1 l 1,-0.05 -0.05,-1 -6,0.15 m 11.05,1.75 -0.05,-2 -4,0.1 0.05,2 1,-0.05 0.05,1 2,-0.05 -0.05,-1 h 1 m -61.85,-35.6 v 1 l -2,0.05 0.1,1 h -1 v 1 l -1,0.05 v 1 h -1 l 0.05,2 -2,0.05 -0.05,-4 h 1 l -0.1,-1 1,-0.05 v -1 h 1 l -0.05,-1 2,-0.05 v -1 l 7,-0.15 0.05,2 -5,0.1 m 9.35,13.8 h 1 l 0.05,3 h -1 l 0.05,2 11,-0.3 0.05,1 5,-0.1 v 1 l 3,-0.05 -0.15,-7 h -1 l -0.05,-3 -1,0.05 -0.05,-1 -24,0.55 0.05,1 -3,0.1 0.05,3 h -1 l 0.15,7 2,-0.05 v -1 l 4,-0.1 -0.05,-1 -2,0.05 v -1 l -1,0.05 -0.15,-6 1,-0.05 v -1 l 6,-0.1 v 1 l 1,-0.05 0.05,2 m 6.25,11.8 -9,0.25 0.05,1 -4,0.1 v 1 l -3,0.1 0.05,1 -5,0.1 -0.4,-17 1,-0.05 -0.05,-3 h 1 l -0.05,-1 3,-0.05 v -1 l 29,-0.7 v 1 l 2,-0.05 0.05,1 1,-0.05 0.45,20 h 1 v 2 l -3,0.05 v -1 l -2,0.05 v -1 l -2,0.05 -0.05,-1 -5,0.1 v -1 l -4,0.1 -0.05,-1 h -1 m -7.3,-12.75 h -1 v -1 l -2,0.05 0.05,3 1,-0.05 0.05,1 h 2 l -0.1,-3 m -4.8,9.1 -3,0.05 0.05,1 -2,0.05 0.05,3 h 1 v -1 l 2,-0.05 -0.05,-1 4,-0.1 v -1 l 14,-0.35 v 1 l 4,-0.1 0.05,1 3,-0.05 v 1 l 1,-0.05 -0.05,-3 -2,0.05 -0.05,-1 -5,0.1 v -1 l -17,0.45 v 1"
       fill="#000000"
       fill-rule="evenodd"
       stroke="none"
       id="path26"
       transform="translate(215.45,347.45)"
       sodipodi:nodetypes="ccccccccccccccccccccccccccccccccccccccccccccccccccccccccccccccccccccccccccccccccccccccccccccccccccccccccccccccccccccccccccccccccccccccccccccccccccccccccccccccccccccccccccccccccccccccccccccccccccccccccccccccccccccccccccccccccccccccccccccccccccccccccccccccccccccccccccccccccccccccccccccccccccccccccccccccccccccccccccccccccccccccccccccccc" />
    <path
       d="m 225.15,-284.1 v 1 l -1,0.05 0.05,2 -9,0.2 -0.05,-3 h -1 l -0.1,-4 -2,0.05 -0.05,-1 -1,0.05 0.05,1 -3,0.05 -3,0.05 v 1 l -2,0.05 0.05,1 -3,0.05 v 1 l -2,0.05 0.05,1 -1,0.05 -0.05,-1 h -1 l -0.05,-2 -1,0.05 v -1 l -0.05,-1 2,-0.05 v -1 l 3,-0.1 -0.05,-1 h 2 v -1 l 6,-0.15 v -1 l 5,-0.1 v 1 l 1,-0.05 0.05,3 h 1 l 0.05,2 1,-0.05 0.05,1 2,-0.05 -0.05,-1 h 2 l -0.05,-2 1,-0.05 0.05,1 h 1 l 0.05,2 1,-0.05 v 1 h 1 l 0.05,1 1,-0.05 m -2.85,7.1 h -1 l -4,0.1 h -1 l -0.05,-2 5,-0.1 v 1 h 1 l 0.05,1"
       fill="#f4a806"
       fill-rule="evenodd"
       stroke="none"
       id="path28"
       transform="translate(215.45,347.45)" />
    <path
       d="m 223.3,-277.05 -1,0.05 -0.05,-1 1,-0.05 0.05,1 m -130.6,-24 -0.1,-3 h 1 l -0.05,-3 1,-0.05 -0.05,-3 h 1 l -0.05,-2 1,-0.05 -0.05,-1 h 1 l -0.05,-3 1,-0.05 h 1 l 0.05,1 0.2,11 -3,0.05 0.05,1 -1,0.05 v 1 l -2,0.05 0.05,1 h -1 m 81.75,-11.85 1,-0.05 0.05,1 h 1 l 0.05,2 1,-0.05 v 1 l -1,0.05 v -1 l -7,0.15 v 1 l -6,0.1 v 1 l -4,0.1 -0.1,-5 4,-0.1 5,-0.1 3,-0.05 3,-0.05 m 4.1,3.9 4,-0.1 v 1 l 17,-0.45 v -1 h 2 v 1 l 1,-0.05 0.05,1 h 1 v 1 l 1,-0.05 0.05,1 h 1 v 1 l 1,-0.05 0.05,1 h 1 v 1 l 1,-0.05 0.05,1 h 1 v 1 h 1 v 1 l 1,-0.05 0.05,1 2,-0.05 v 1 h 1 l 0.05,1 1,-0.05 v 1 h 1 l 0.05,2 1,-0.05 0.05,1 h 1 v 2 h 1 l 0.05,2 0.05,2 h -2 l 0.05,1 -2,0.05 -0.05,-1 -1,0.05 -0.05,-2 h -1 l -0.05,-3 -1,0.05 v -1 l -5,0.1 v 1 l -6,0.15 v 1 h -2 l 0.05,1 -3,0.1 v 1 l -2,0.05 0.05,1 h -1 l -0.05,-2 -1,0.05 -0.05,-2 h -1 v -1 l -1,0.05 -0.05,-2 -1,0.05 -0.05,-2 h -1 l -0.1,-3 -1,0.05 v -1 h -1 v -1 l -1,0.05 -0.05,-1 h -1 v -1 l -1,0.05 -0.05,-1 h -1 v -1 h -1 l -0.05,-1 -1,0.05 v -1 h -1 l -0.05,-1 -1,0.05 v -1 m 19.6,25.5 -0.05,-1 2,-0.05 v -1 l 3,-0.05 -0.05,-1 2,-0.05 v -1 l 3,-0.05 v 1 l -2,0.05 0.05,1 -2,0.05 v 1 l -2,0.05 0.05,1 -3,0.05 v 1 h -1 v -1"
       fill="#ffba06"
       fill-rule="evenodd"
       stroke="none"
       id="path30"
       transform="translate(215.45,347.45)" />
    <path
       d="m 214.55,-308.85 1,-0.05 0.05,1 h 1 v 1 l 1,-0.05 0.05,2 h 1 l 0.1,3 11.95,-0.25 -0.05,-1 4,-0.1 v -1 l 2,-0.05 v 1 h -1 l 0.05,1 -1,0.05 v 1 h -1 v 1 l -1,0.05 0.05,1 h -1 v 1 l -1,0.05 0.05,2 h -0.95 l 0.05,1 -2,0.05 v 1 h -1 l 0.05,1 -2,0.05 v 1 l -1,0.05 v 1 h -1 l 0.05,1 -2,0.05 v 1 l -1,0.05 -0.05,-2 h -1 v -2 h -1 l -0.05,-1 -1,0.05 -0.05,-2 h -1 v -1 l -1,0.05 -0.05,-1 h -1 v -1 l -2,0.05 -0.05,-1 -1,0.05 v -1 h -1 v -1 h -1 l -0.05,-1 -1,0.05 v -1 h -1 l -0.05,-1 -1,0.05 v -1 h -1 l -0.05,-1 -1,0.05 v -1 h -1 l -0.05,-1 -1,0.05 v -1 l 4,-0.1 v -1 l 3,-0.1 v 1 l 4,-0.05 v 1 l 2,-0.05 m -116.2,-7.35 -0.05,-2 h 1 l -0.05,-3 1,-0.05 -0.05,-1 h 1 v -2 h 1 l -0.05,-1 1,-0.05 -0.05,-2 h 1 v -1 l 1,-0.05 -0.1,-1 h 1 l -0.05,-2 1,-0.05 0.15,3 v 1 l -1,0.05 0.05,1 h -1 v 1 l -1,0.05 0.05,2 h -1 l 0.05,2 -1,0.05 0.05,2 h -1 l 0.05,2 h -1 l 0.05,2 -1,0.05 -0.05,-1 h -1 m 76.1,2.3 v 1 l -3,0.05 v -1 l 2,-0.05 h 1 m 1,0.95 10,-0.2 v -1 l 4,-0.1 2,-0.1 6,-0.15 h 1 l 0.05,2 1,-0.05 v 1 h 1 l 0.05,1 h 1 v 1 h -2 v 1 l -17,0.45 v -1 l -4,0.1 h -1 v -1 l -1,0.05 -0.05,-2 h -1 l -0.05,-1 m -12,0.25 v -1 l 5,-0.1 v 1 l -5,0.1"
       fill="#ffbe08"
       fill-rule="evenodd"
       stroke="none"
       id="path32"
       transform="translate(215.45,347.45)" />
    <path
       d="m 236.65,-304.35 h 1 v 1 h -1 l 0.05,1 h -1 v 2 l -1,0.05 0.05,1 h -1 v 1 l -1,0.05 0.05,1 h -1 v 1 l -1,0.05 0.05,2 h -0.95 l 0.05,2 -1,0.05 0.05,2 h -1 v 1 h -1 l 0.05,1 -1,0.05 0.05,2 h -1 l 0.05,2 -1,0.05 -0.05,-1 h -1 v -1 l -1,0.05 -0.05,-2 h -1 l -0.05,-1 v -1 l 2,-0.05 -0.05,-1 h 1 v -1 l 1,-0.05 v -1 l 2,-0.05 -0.05,-1 h 1 v -1 l 2,-0.05 -0.05,-1 h 0.95 l -0.05,-2 1,-0.05 v -1 h 1 l -0.05,-1 1,-0.05 v -1 h 1 v -1 l 1,-0.05 -0.05,-1 h 1 v -1 m -129.7,-27.05 v -1 h 1 l 0.05,2 1,-0.05 v 1 l 0.1,1 -2,0.05 -0.15,-3"
       fill="#f9ac08"
       fill-rule="evenodd"
       stroke="none"
       id="path34"
       transform="translate(215.45,347.45)" />
    <path
       d="m 150.1,-284.35 2,-0.05 -0.05,-1 4,-0.1 v -1 l 3,-0.05 -0.05,-1 8,-0.2 0.25,10 h 1 l 0.1,4 2,-0.05 -0.05,-1 1,-0.05 v -1 l 2,-0.05 -0.05,-1 h 2 v -1 l 2,-0.05 -0.05,-1 1,-0.05 v -1 l 3,-0.05 -0.05,-1 1,-0.05 v -1 h 1 v -1 l 2,-0.05 -0.05,-1 2,-0.05 v -1 l 3,-0.05 -0.05,-1 2,-0.1 v -1 l 2,-0.05 h 1 v 1 l 1,-0.05 0.05,2 h 1 l 0.05,1 -2,0.05 v 1 l -2,0.05 v 1 l -3,0.1 0.05,1 -2,0.05 v 1 h -1 l 0.05,1 -1,0.05 h -1 v 1 l -2,0.05 0.05,1 -2,0.05 v 1 h -1 l 0.05,1 -3,0.1 0.05,1 -3,0.05 v 1 l -2,0.05 0.05,1 h -1 v 1 l -3,0.1 0.05,1 h -1 v 1 l -1,0.05 -0.15,-6 h -1 l -0.15,-5 h -1 l -0.1,-5 -2,0.05 0.05,1 -3,0.1 v 1 l -4,0.05 v 1 l -3,0.1 h -1 l 0.05,1 -4,0.1 h -1 l -0.05,-1 -1,0.05 v -1 h -1 v -1 l 2,-0.05 -0.05,-1 h 2 v -1 l 2,-0.05"
       fill="#efa404"
       fill-rule="evenodd"
       stroke="none"
       id="path36"
       transform="translate(215.45,347.45)" />
    <path
       d="m 91.85,-293.05 -0.15,-8 h 1 1 l -0.05,-1 2,-0.05 v -1 l 1,-0.05 -0.05,-1 3,-0.05 0.2,7 1,-0.05 v 2 l -2,0.05 0.05,1 -6,0.15 v 1 h -1 m 85.7,-15.95 h 1 v 1 l 1,-0.05 0.05,1 h 1 v 1 l 1,-0.05 0.05,1 h 1 v 1 h 1 l 0.05,1 1,-0.05 v 1 h 1 l 0.05,1 1,-0.05 v 1 h 1 v 1 l 1,-0.05 0.1,3 h 1 l 0.05,2 1,-0.05 0.05,2 1,-0.05 v 1 h 1 l 0.05,2 1,-0.05 0.05,2 -2,0.05 v 1 l -2,0.1 0.05,1 -3,0.05 v 1 l -2,0.05 0.05,1 -2,0.05 v 1 h -1 v 1 l -1,0.05 0.05,1 -3,0.05 v 1 l -1,0.05 0.05,1 -2,0.05 v 1 h -2 l 0.05,1 -2,0.05 v 1 l -1,0.05 0.05,1 -2,0.05 -0.1,-4 h -1 l -0.25,-10 -8,0.2 0.05,1 -3,0.05 v 1 l -4,0.1 0.05,1 -2,0.05 -0.05,-1 1,-0.05 v -1 h 1 l -0.05,-1 1,-0.05 -0.05,-2 h 1 v -2 l 1,-0.05 -0.05,-1 h 1 v -1 h 1 l -0.05,-2 1,-0.05 -0.05,-2 h 1 l -0.15,-6 1,-0.05 -0.1,-4 4,-0.1 v -1 l 6,-0.1 v -1 l 7,-0.15 v 1 l 1,-0.05 m 19.6,25.55 1,-0.05 v 1 l -3,0.1 v 1 h -1 l 0.05,1 -3,0.1 v 1 l -2,0.05 0.05,1 -2,0.05 -0.05,-1 h 1 v -1 l 2,-0.05 -0.05,-1 3,-0.1 v -1 l 2,-0.05 v -1 l 2,-0.05 m -10.9,5.3 v 1 h -1 v -1 h 1 m -34.1,-2.25 0.05,1 h -1 l -0.05,-1 h 1 m -4.95,1.1 v 1 h -1 v -1 h 1"
       fill="#ffb604"
       fill-rule="evenodd"
       stroke="none"
       id="path38"
       transform="translate(215.45,347.45)" />
    <path
       d="m 109,-329.45 h 2 v -1 l 1,-0.05 -0.05,-1 2,-0.05 v -1 l 2,-0.05 v -1 l 4,-0.05 -0.05,-1 2,-0.05 v -1 l 16,-0.4 v 1 l 2,-0.05 v 1 l 5,-0.15 0.05,1 h 2 v 1 l 2,-0.05 0.05,1 1,-0.05 v 1 h 1 l 0.05,1 1,-0.05 0.1,2 h 1 v 1 l 1,-0.05 v 1 h 1 l 0.05,1 h 1 l 0.05,2 1,-0.05 0.05,2 h 1 l 0.1,5 1,-0.05 0.05,3 0.1,5 0.1,4 -1,0.05 0.15,6 h -1 l 0.05,2 -1,0.05 0.05,2 h -1 v 1 h -1 l 0.05,1 -1,0.05 v 2 h -1 l 0.05,2 -1,0.05 0.05,1 h -1 v 1 l -1,0.05 0.05,1 -2,0.05 v 1 h -2 l 0.05,1 -2,0.05 -1,0.05 v 1 l -2,0.05 v 1 l -4,0.05 0.05,1 -14,0.4 -0.05,-1 -4,0.05 -6,0.15 v -1 l -2,0.05 v -1 l -2,0.05 -0.05,-1 h -1 v -1 l -1,0.05 -0.05,-1 h -1 v -1 l -0.05,-1 -1,0.05 -0.05,-2 h -1 v -2 l -1,0.05 -0.05,-1 v -1 h -1 l -0.05,-2 h -1 l -0.05,-1 v -2 l -1,0.05 -0.2,-7 -0.2,-11 1,-0.05 -0.05,-2 h 1 l -0.05,-2 h 1 l -0.05,-2 1,-0.05 -0.05,-2 h 1 l -0.05,-2 1,-0.05 v -1 h 1 l -0.05,-1 1,-0.05 v -1 l 2,-0.05 -0.1,-1 m 19.95,-4.4 -5,0.1 v 1 l -2,0.05 v 1 l -4,0.05 0.05,1 -2,0.05 v 1 l -2,0.05 0.1,1 -1,0.05 v 1 l -2,0.05 0.05,1 h -2 v 1 l -1,0.05 0.05,1 h -1 v 1 l -1,0.05 0.05,2 h -1 l 0.05,2 -1,0.05 0.05,2 h -1 l 0.05,2 -1,0.05 v 1 1 h -1 l 0.35,14 h 1 l 0.05,3 1,-0.05 0.05,2 h 1 l 0.05,2 1,-0.05 0.05,2 h 1 v 2 l 1,-0.05 0.05,2 h 1 l 0.05,1 1,-0.05 v 1 h 1 l 0.05,1 2,-0.05 v 1 l 2,-0.05 0.05,1 10,-0.2 v 1 l 7,-0.15 3,-0.1 v -1 l 4,-0.1 -0.05,-1 2,-0.05 v -1 l 3,-0.1 -0.05,-1 2,-0.05 v -1 h 2 l -0.05,-1 1,-0.05 v -1 h 1 l -0.05,-1 1,-0.05 v -2 h 1 l -0.05,-2 1,-0.05 -0.05,-1 h 1 v -1 l 1,-0.05 -0.05,-2 h 1 l -0.05,-2 h 1 l -0.15,-6 1,-0.05 -0.15,-8 -1,0.05 -0.1,-5 h -1 l -0.05,-2 h -1 l -0.05,-2 -1,0.05 -0.05,-1 h -1 v -1 l -1,0.05 -0.05,-1 h -1 v -2 l -1,0.05 -0.05,-1 h -1 l -0.05,-1 -1,0.05 -0.05,-1 h -2 v -1 l -2,0.05 -0.05,-1 -5,0.15 v -1 h -2 l -0.05,-1 -6.95,0.25"
       fill="#f37272"
       fill-rule="evenodd"
       stroke="none"
       id="path40"
       transform="translate(215.45,347.45)" />
    <path
       d="m 208.45,-314.75 h 1 v 1 h 1 l 0.05,1 1,-0.05 v 1 h 1 l 0.05,1 1,-0.05 v 1 h 1 v 1 l -2,0.05 v -1 l -4,0.05 v -1 l -3,0.1 v 1 l -4,0.1 v -1 h -1 l -0.05,-1 h -1 v -1 l -1,0.05 -0.05,-2 6,-0.15 2,-0.05 2,-0.05 m -70.55,-21.35 1,-0.05 -0.05,-1 4,-0.1 v -1 l 2,-0.05 -0.05,-1 3,-0.05 v -1 l 5,-0.1 v 1 l 1,-0.05 0.05,1 h 1 v 1 h 1 l 0.05,1 1,-0.05 v 1 h 1 v 1 l 1,-0.05 0.05,1 h 1 v 1 l 1,-0.05 0.05,1 h 1 v 1 l 1,-0.05 0.05,1 h 2 l 0.05,1 1,-0.05 0.05,3 h 1 l 0.05,2 1,-0.05 0.05,2 h 1 l 0.05,1 1,-0.05 0.05,2 h 1 v 2 l 1,-0.05 0.05,1 h 1 l 0.05,2 -2,0.05 v 1 l -3,0.05 v -1 l -5,0.1 v 1 l -4,0.1 -0.05,-3 -1,0.05 -0.1,-5 h -1 l -0.05,-2 -1,0.05 -0.05,-2 h -1 l -0.05,-1 h -1 v -1 l -1,0.05 v -1 h -1 l -0.1,-2 -1,0.05 -0.05,-1 h -1 v -1 l -1,0.05 -0.05,-1 -2,0.05 v -1 h -2 l -0.05,-1 -5,0.15 v -1 l -2,0.05 v -1 m 36.55,23.2 v -1 l 3,-0.1 -0.05,-1 4,-0.1 v -1 h 2 v 1 l 6,-0.15 0.05,1 -4,0.1 v 1 l -10,0.2 -1,0.05 m 23,-1.6 -6,0.15 -0.05,-0.95 4,-0.15 v -1 h 1 v 1 l 1,-0.05 0.05,1"
       fill="#ffc20a"
       fill-rule="evenodd"
       stroke="none"
       id="path42"
       transform="translate(215.45,347.45)" />
    <path
       d="m 207.4,-315.7 1,-0.05 0.05,1 -2,0.05 -0.05,-1 h 1 m -54.6,-24.75 -0.05,-1 2,-0.05 v -1 l 3,-0.05 -0.05,-1 4,-0.1 v -1 l 5,-0.1 v -1 l 4,-0.1 v 2 l 1,-0.05 0.05,1 h 1 l 0.05,2 h 1 v 1 l 1,-0.05 0.05,1 h 1 l 0.05,2 1,-0.05 v 1 h 1 v 1 l 1,-0.05 0.05,1 h 1 v 1 l 1,-0.05 0.05,1 h 1 v 1 l 0.05,1 -4,0.1 v 1 l -3.95,0.1 0.05,1 -3,0.05 0.05,4 5,-0.1 0.05,1 4,-0.1 v 1 l 9,-0.2 0.05,1 4,-0.15 v 1 h 1 l 0.05,1 1,-0.05 v 2 h 1 l 0.05,1 h -1 v 1 l -4,0.15 0.05,0.95 -2,0.1 -0.05,-1 -6,0.15 v -1 h -2 v 1 l -4,0.1 0.05,1 -3,0.1 h -1 l -0.05,-2 h -1 l -0.05,-1 -1,0.05 v -2 h -1 l -0.05,-2 -1,0.05 -0.05,-1 h -1 l -0.05,-2 -1,0.05 -0.05,-2 h -1 l -0.05,-3 -1,0.05 -0.05,-1 h -2 l -0.05,-1 -1,0.05 v -1 h -1 l -0.05,-1 -1,0.05 v -1 h -1 l -0.05,-1 -1,0.05 v -1 h -1 v -1 l -1,0.05 -0.05,-1 h -1 v -1 h -1 l -0.05,-1 -1,0.05 v -1 m 45.65,25.95 h -1 l -0.05,-1 -1,0.05 v -1 l 2,-0.05 v 1 l 6,-0.15 0.05,1 -6,0.15"
       fill="#ffc60c"
       fill-rule="evenodd"
       stroke="none"
       id="path44"
       transform="translate(215.45,347.45)" />
    <path
       d="m 170.7,-345.85 7,-0.15 -0.05,-1 18,-0.45 0.05,1 5,-0.1 v 1 l 7,-0.15 v 1 h -1 l 0.05,1 h -1 l 0.05,2 -1,0.05 v 1 l -3,0.05 0.05,1 -2,0.05 v 1 l -1,0.05 0.05,1 -3,0.05 v 1 h -1 v 1 l -2,0.05 0.05,1 -2,0.1 v 1 l -3,0.05 0.05,1 -3,0.1 v 1 l -2,0.05 h -1 v -1 h -1 l -0.05,-1 -1,0.05 v -1 h -1 l -0.05,-1 -1,0.05 v -1 h -1 v -1 l -1,0.05 -0.05,-2 h -1 l -0.05,-1 -1,0.05 v -1 h -1 l -0.05,-2 h -1 l -0.05,-1 -1,0.05 v -2 m 30.65,26.3 2,-0.05 v 1 l 2,-0.05 v 1 l 1,-0.05 0.05,1 h 1 v 1 h -1 l 0.05,1 -2,0.05 -0.05,-1 -6,0.15 v -1 l -2,0.05 -0.05,-1 h -1 v -2 l -1,0.05 -0.05,-1 h -1 v -1 h 1 v 1 l 5,-0.15 0.05,1 h 2"
       fill="#ffca0e"
       fill-rule="evenodd"
       stroke="none"
       id="path46"
       transform="translate(215.45,347.45)" />
    <path
       d="m 182,-331.1 h 1 l 0.05,1 1,-0.05 v 1 h 1 l 0.1,1 1,-0.05 v 1 l 2,-0.05 v 1 h 1 l 0.05,1 1,-0.05 v 1 l 2,-0.05 0.05,2 1,-0.05 0.05,1 -4,0.15 -0.05,-1 -9,0.2 v -1 l -4,0.1 -0.05,-1 -5,0.1 -0.05,-4 3,-0.05 -0.05,-1 3.95,-0.1 v -1 l 4,-0.1 -0.05,-1"
       fill="#ffb40c"
       fill-rule="evenodd"
       stroke="none"
       id="path48"
       transform="translate(215.45,347.45)" />
    <path
       d="m 207.7,-344.7 0.05,2 h -1 l 0.05,2 h -1 l 0.05,1 -1,0.05 v 1 h -1 l 0.05,2 -1,0.05 0.05,2 h -1 l 0.05,2 -1,0.05 v 1 h -1 l 0.05,2 -1,0.05 0.1,1.95 -1,0.05 v 1 h -1 l 0.05,2 -1,0.05 0.05,2 1,-0.05 0.05,1 2,-0.05 v 1 h 2 l 0.05,1 h -2 l -0.05,-1 -5,0.15 v -1 h -1 l -0.05,-1 -1,0.05 -0.05,-2 -2,0.05 v -1 l -1,0.05 -0.05,-1 h -1 v -1 l -2,0.05 v -1 l -1,0.05 -0.1,-1 h -1 v -1 l -1,0.05 -0.05,-1 2,-0.05 v -1 l 3,-0.1 -0.05,-1 3,-0.05 v -1 l 2,-0.1 -0.05,-1 2,-0.05 v -1 h 1 v -1 l 3,-0.05 -0.05,-1 1,-0.05 v -1 l 2,-0.05 -0.05,-1 3,-0.05 v -1 l 1,-0.05 -0.05,-2 h 1 l -0.05,-1 h 1"
       fill="#ffb80e"
       fill-rule="evenodd"
       stroke="none"
       id="path50"
       transform="translate(215.45,347.45)" />
    <path
       d="m 94.25,-276.05 h -2 v 1 l -1,0.05 0.05,1 h -1 v 1 l -2,0.05 0.1,1 -1,0.05 v 1 l -2,0.05 v 1 h -1 l 0.05,1 h -1 v 1 l -2,0.05 0.05,1 -1,0.1 v 1 l -2,0.05 0.05,1 h -1 v 1 l -1,0.05 0.05,1 h -1.95 v 1 l -4,0.1 v -1 l -1,0.05 -0.1,-4 1,-0.05 -0.05,-1 h 1 v -1 l 2,-0.05 v -1 l 1,-0.05 -0.05,-1 h 0.95 v -1 l 2,-0.05 -0.05,-1 h 1 l -0.05,-1 2,-0.05 -0.05,-1 1,-0.1 v -1 h 1 l -0.05,-1 2,-0.05 v -1 h 1 l -0.05,-1 2,-0.05 v -1 l 1,-0.05 v -1 h 1 l -0.05,-1 2,-0.05 v -1 l 1,-0.05 -0.05,-1 h 1 1 v -1 l 1,-0.05 -0.05,-1 h 1 v -1 l 2,-0.05 -0.05,-1 1,-0.05 v -1 l 2,-0.05 v -1 h 1 l -0.05,-1 h 1 l 0.05,1 1,-0.05 v 2 h 1 l 0.05,2 1,-0.05 0.05,1 -1,0.05 v 1 h -1 l 0.05,1 -2,0.05 v 1 h -1 l 0.05,1 -2,0.05 v 1 l -1,0.05 v 1 h -1 l 0.05,1 -2,0.05 v 1 l -1,0.05 0.05,1"
       fill="#b78354"
       fill-rule="evenodd"
       stroke="none"
       id="path52"
       transform="translate(215.45,347.45)" />
    <path
       d="m 146.2,-278.3 -9,0.2 0.05,1 -8,0.25 -0.05,-1 -9,0.2 v -1 h -1 l -0.05,-1 4,-0.05 0.05,1 14,-0.4 -0.05,-1 4,-0.05 v -1 l 2,-0.05 v -1 l 1,-0.05 v 1 h 1 v 1 l 1,-0.05 0.05,1 v 1"
       fill="#eaa002"
       fill-rule="evenodd"
       stroke="none"
       id="path54"
       transform="translate(215.45,347.45)" />
    <path
       d="m 128.95,-333.85 6.95,-0.25 0.05,1 h 2 v 1 l 5,-0.15 0.05,1 2,-0.05 v 1 h 2 l 0.05,1 1,-0.05 0.05,1 h 1 l 0.05,1 1,-0.05 v 2 h 1 l 0.05,1 1,-0.05 v 1 l 0.05,1 -1,0.05 0.05,2 h -1 l 0.05,2 -1,0.05 v 1 h -1 v 1 l -1,0.05 0.05,2 h -1 l 0.05,1 -2,0.05 v 1 l -2,0.05 0.05,1 -2,0.05 v 1 l -2,0.05 0.05,1 h -2 v 1 l -3,0.15 0.05,1 -3,0.05 v 1 l -1,0.05 v 1 l 1,-0.05 0.05,1 h 1 v 1 l 2,-0.05 0.05,1 2,-0.05 v 1 l 6,-0.2 0.05,1 6,-0.1 v 1 l 8,-0.2 0.05,2 h -1 l 0.05,2 -1,0.05 v 1 h -1 l 0.05,1 -1,0.05 0.05,2 h -1 v 2 l -1,0.05 0.05,1 h -1 v 1 l -1,0.05 0.05,1 h -2 v 1 l -2,0.05 0.05,1 -3,0.1 v 1 l -2,0.05 0.05,1 -4,0.1 v 1 l -3,0.1 -0.05,-2 h -1 l -0.05,-2 -1,0.05 v -1 h -1 l -0.05,-1 h -1 l -0.05,-3 -1,0.05 -0.05,-2 h -1 l -0.05,-3 -1,0.05 -0.2,-8 1,-0.05 v -1 l -3,0.1 v 1 l -4,0.05 0.05,1 -2,0.05 v 1 l -2,0.05 0.05,1 -2,0.05 v 1 l -1,0.05 0.05,1 h -1 v 1 h -1 l 0.05,2 -1,0.05 v 1 h -1 l 0.05,2 -1,0.05 0.05,1 h -1 l -0.05,-2 -1,0.05 -0.05,-2 h -1 l -0.05,-2 -1,0.05 -0.05,-3 h -1 l -0.35,-14 h 1 v -1 l 12,-0.3 v 1 l 5,-0.1 0.05,1 3,-0.05 v 1 l 2,-0.05 0.05,1 1,-0.05 v 1 h 1 l 0.05,1 3,-0.05 -0.05,-2 1,-0.05 -0.05,-1 h 1 l -0.05,-2 1,-0.05 -0.05,-4 h 1 l -0.3,-11 h -1 l -0.05,-2 -1,0.05 -0.05,-1 h -1 v -1 l -1,0.05 v -1"
       fill="#ffd8d8"
       fill-rule="evenodd"
       stroke="none"
       id="path56"
       transform="translate(215.45,347.45)" />
    <path
       d="m 120.2,-277.65 -7,0.15 0.55,21 -1,0.05 0.1,6 -3,0.05 v -1 h -1 l -0.05,-1 -0.1,-6 h 1 l -0.2,-8 1,-0.05 -0.35,-14 h 1 l 2,-0.05 v 1 l 6,-0.15 0.05,1 h 1 v 1"
       fill="#e59c00"
       fill-rule="evenodd"
       stroke="none"
       id="path58"
       transform="translate(215.45,347.45)" />
    <path
       d="m 102.4,-314.25 v -1 l 1,-0.05 -0.05,-2 h 1 l -0.05,-2 1,-0.05 -0.05,-2 h 1 l -0.05,-2 1,-0.05 v -1 h 1 l -0.05,-1 1,-0.05 v -1 h 2 l -0.05,-1 2,-0.05 v -1 l 1,-0.05 -0.1,-1 2,-0.05 v -1 l 2,-0.05 -0.05,-1 4,-0.05 v -1 l 2,-0.05 v -1 l 5,-0.1 v 1 l 1,-0.05 v 1 h 1 l 0.05,1 1,-0.05 0.05,2 h 1 l 0.3,11 h -1 l 0.05,4 -1,0.05 0.05,2 h -1 l 0.05,1 -1,0.05 0.05,2 -3,0.05 -0.05,-1 h -1 v -1 l -1,0.05 -0.05,-1 -2,0.05 v -1 l -3,0.05 -0.05,-1 -5,0.1 v -1 l -12,0.3 m 49.8,-9.2 h 1 l 0.05,1 1,-0.05 0.05,2 h 1 l 0.05,2 h 1 l 0.1,5 1,-0.05 0.15,8 -1,0.05 0.15,6 h -1 l -8,0.2 v -1 l -6,0.1 -0.05,-1 -6,0.2 v -1 l -2,0.05 -0.05,-1 -2,0.05 v -1 h -1 l -0.05,-1 -1,0.05 v -1 l 1,-0.05 v -1 l 3,-0.05 -0.05,-1 3,-0.15 v -1 h 2 l -0.05,-1 2,-0.05 v -1 l 2,-0.05 -0.05,-1 2,-0.05 v -1 l 2,-0.05 -0.05,-1 h 1 l -0.05,-2 1,-0.05 v -1 h 1 v -1 l 1,-0.05 -0.05,-2 h 1 l -0.05,-2 1,-0.05 -0.05,-1 m -20.05,42.55 -7,0.15 v -1 l -10,0.2 -0.05,-1 -2,0.05 v -1 l -2,0.05 -0.05,-1 h -1 v -1 l -1,0.05 -0.05,-1 h -1 l -0.05,-2 -1,0.05 v -2 l -0.05,-1 1,-0.05 -0.05,-2 h 1 v -1 l 1,-0.05 -0.05,-2 h 1 v -1 h 1 l -0.05,-1 1,-0.05 v -1 l 2,-0.05 -0.05,-1 2,-0.05 v -1 l 2,-0.05 -0.05,-1 4,-0.05 v -1 l 3,-0.1 v 1 l -1,0.05 0.2,8 1,-0.05 0.05,3 h 1 l 0.05,2 1,-0.05 0.05,3 h 1 l 0.05,1 h 1 v 1 l 1,-0.05 0.05,2 h 1 l 0.05,2"
       fill="#ff8b8b"
       fill-rule="evenodd"
       stroke="none"
       id="path60"
       transform="translate(215.45,347.45)" />
    <path
       d="m 107.8,-252.35 v -1 h -1 v -1 l -1,0.05 -0.05,-1 h -1 v -1 l -1,0.05 -0.05,-1 h -1 v -1 h -1 l -0.05,-2 -1,0.05 -0.05,-2 h -1 l -0.05,-3 -1,0.05 -0.05,-2 h -1 l -0.05,-2 -1,0.05 -0.05,-2 h -1 l -0.15,-4 -1,0.05 v -1 l -0.05,-1 1,-0.05 v -1 l 2,-0.05 -0.05,-1 h 1 v -1 l 1,-0.05 v -1 l 2,-0.05 -0.05,-1 h 1 v -1 l 2,-0.05 -0.05,-1 h 1 v -1 l 1,-0.05 v 1 h 1 l 0.05,1 1,-0.05 v 1 h 1 l 0.05,1 2,-0.05 v 1 h -1 l 0.35,14 -1,0.05 0.2,8 h -1 l 0.1,6 -1,0.05"
       fill="#ffae00"
       fill-rule="evenodd"
       stroke="none"
       id="path62"
       transform="translate(215.45,347.45)" />
    <path
       d="m 93.05,-284.05 v -1 h -1 l -0.2,-8 h 1 v -1 l 6,-0.15 -0.05,-1 2,-0.05 0.05,1 h 1 l 0.05,2 h 1 v 1 h -1 l 0.05,1 h -1 v 1 l -2,0.05 v 1 l -1,0.05 0.05,1 -2,0.05 v 1 h -1 l 0.05,1 -1,0.05 v 1 h -1"
       fill="#ffb202"
       fill-rule="evenodd"
       stroke="none"
       id="path64"
       transform="translate(215.45,347.45)" />
  </g>
  <path
     d="M 8,39.1 7.95,39 h 0.5 V 38.6 H 8.8 V 38.15 H 9.2 V 37.3 l 0.4,-0.05 v -0.4 H 10 L 9.95,36.45 H 10.8 V 36 h 0.4 v -0.4 h 0.45 L 11.6,35.1 11.95,35.05 V 34.7 h 0.4 L 12.3,34.3 h 0.5 v -0.85 h 0.4 v -0.4 l 0.45,-0.1 V 32.5 l 0.4,-0.05 -0.05,-0.4 h 0.85 V 31.6 h 0.4 v -0.4 h 0.4 V 30.8 L 16.1,30.75 V 30.3 h 0.85 v -0.4 h 0.4 L 17.3,29.5 h 0.85 V 29.05 L 18.55,29 v -0.35 h 0.4 V 28.2 h 0.45 v -0.4 h 0.85 L 20.2,27.4 21,27.35 20.95,26.9 h 0.45 v -0.4 l 0.85,-0.1 v -0.45 h 0.4 v -0.4 L 23.5,25.5 23.45,25.1 h 0.8 V 24.25 L 25.1,24.2 v -0.4 h 0.45 v -0.45 h 1.25 v -0.4 h 0.4 l -0.05,-0.45 0.4,-0.05 v -0.4 h 0.85 v -0.4 h 0.4 V 21.2 h 0.4 v -0.15 l 0.15,-0.25 0.15,-0.05 -0.3,0.45 c 16.1,-8.033333 35.1,-9.483333 57,-4.35 l -0.55,-0.4 h 0.45 l 0.1,0.4 h 0.85 l 0.05,0.4 h 0.4 v 0.45 l 0.85,-0.15 v 0.4 h 0.7 v 0.5 h 0.9 v 0.35 l 0.85,-0.05 v 0.4 h 0.85 l 0.05,0.5 h 0.4 V 20 l 0.85,-0.05 v 0.4 h 0.4 v 0.5 h 0.45 v 0.35 h 0.4 l 0.05,0.5 0.85,-0.05 v 0.4 h 0.85 v 0.4 h 0.4 v 0.85 l 0.4,-0.1 0.05,0.4 0.85,-0.05 V 24 h 0.4 v 0.4 h 0.45 l 0.1,0.5 H 99 v 0.35 l 0.45,-0.05 v 0.4 h 0.4 l 0.05,0.5 h 0.4 v 0.3 h 0.45 v 0.45 h 0.4 v 0.4 L 102,27.2 v 0.4 h 0.4 l 0.05,0.45 h 0.5 v 0.4 h 0.35 v 0.4 h 0.4 v 0.45 l 0.85,-0.05 v 0.4 l 0.5,-0.05 v 0.45 h 0.4 l 0.05,0.4 h 0.35 v 0.4 l 0.5,-0.05 v 0.45 h 0.4 v 0.4 h 0.35 v 0.4 h 0.5 l 0.1,0.45 h 0.4 v 0.85 l 0.5,-0.05 0.05,1.25 H 109 v 0.85 h 0.4 v 0.8 h 0.4 l 0.05,0.85 h 0.4 v 0.9 l 0.85,-0.05 v 0.35 h 0.4 l 0.05,0.9 H 112 V 40 h 0.4 v 0.4 h 0.4 l 0.15,0.85 0.45,-0.05 v 1.25 h 0.4 v 0.85 l 0.4,-0.1 0.05,0.9 h 0.45 v 0.4 h 0.4 l 0.05,1.55 0.45,-0.05 v 0.85 h 0.4 l 0.05,1.7 h 0.4 l 0.05,0.8 h 0.5 l 0.05,1.35 h 0.4 v 1.65 h 0.45 l 0.05,1.25 0.4,-0.05 0.05,2.1 h 0.4 l 0.05,1.25 h 0.45 l 0.1,2.1 h 0.35 l 0.05,1.25 h 0.4 l 0.05,2.6 0.5,-0.05 0.05,2 h 0.35 l 0.45,10.1 h -0.4 l 0.1,4.65 -0.5,0.05 0.2,4.85 -0.4,0.05 0.05,2.1 h -0.4 l 0.05,2.15 h -0.45 l 0.1,2.1 h -0.35 v 1.7 h -0.35 -0.05 l 0.05,1.4 v 1.1 h 0.4 l 0.05,0.4 h 0.35 l 0.05,2.1 h -0.35 l 0.05,1.75 h -0.4 l 0.05,2.1 -0.45,0.05 v 0.4 h -0.25 -0.15 l 0.05,1.85 0.35,11.5 h -0.5 l 0.2,3 h -0.4 l 0.05,3.6 h -0.4 l 0.05,1.25 h -0.45 v 0.5 l -0.4,0.05 0.15,1.25 h -0.5 v 0.4 l -0.4,0.05 v 0.85 h -0.35 l 0.05,0.9 h -0.5 v 0.85 h -0.4 l 0.05,1.25 -0.3,0.05 h -0.05 v 0.2 0.2 h -0.5 v 0.45 H 114 v 0.4 h -0.45 l 0.05,0.85 h -0.4 v 0.4 l -0.4,0.05 v 0.4 h -0.4 l 0.1,0.85 h -0.4 v 0.45 h -0.4 l 0.05,0.4 h -0.45 v 0.4 h -0.4 v 0.45 l -0.85,0.05 v 0.8 h -0.4 l 0.05,0.85 h 0.4 l 0.05,2.1 h -0.4 v 1.75 h -0.45 l 0.15,2.8 h -0.4 l 0.05,3 -0.35,0.05 0.05,2.95 -4.4,11.7 v 0.3 h -0.1 l -0.15,0.15 -1.25,2.6 -1.3,0.65 c 0.3,0.9 0.11667,1.31667 -0.55,1.25 l -0.65,0.1 c 0.33333,0.93333 0.13333,1.38333 -0.6,1.35 h -0.65 l -1.2,2.55 c -1.4,0.43333 -2.2,1.65 -2.4,3.65 h -0.3 v 0.5 H 94.8 v 0.3 l -0.1,0.1 h -0.3 v 0.2 l -0.2,0.15 h -0.25 v 0.2 l -0.75,0.8 v 0.8 l -0.3,0.05 0.05,0.4 h -0.4 v 0.5 h -0.4 v 0.35 H 91.7 v 0.9 l -0.4,0.05 V 179 h -0.5 l 0.05,0.4 H 90.5 v 0.4 l -1.3,0.05 v 0.4 h -0.85 v 0.45 h -0.4 l 0.05,0.9 h -0.45 v 0.35 h -0.4 v 0.4 l -0.4,0.05 v 0.5 H 85.9 v 0.35 h -0.45 l 0.05,0.4 h -0.35 l 0.05,0.5 -0.9,0.1 v 0.4 h -0.35 v 0.45 h -0.4 v 0.4 h -0.5 v 0.4 h -0.4 l 0.05,0.45 -0.85,0.05 v 0.4 h -0.4 v 0.5 H 80.6 v 0.35 l -0.45,0.05 v 0.4 h -0.8 l 0.05,0.85 h -0.85 v 0.4 l -0.4,0.05 v 0.5 H 77.3 v 0.35 l -1.25,0.1 0.05,0.45 -0.45,0.05 v 0.4 h -1.6 v 0.4 l -1.7,0.05 v 0.45 l -1.65,0.05 0.1,0.4 -2.15,0.05 v 0.4 l -8.4,0.3 -0.05,-0.4 -0.35,0.05 -0.1,-0.35 -3.35,0.05 v -0.5 l -2.15,0.05 v -0.4 L 51.4,192 v -0.4 l -0.55,0.05 -0.35,-0.25 -0.05,-0.2 h -0.3 c -0.533333,-0.36667 -1.1,-0.61667 -1.7,-0.75 V 190.4 H 48.3 l -0.75,-0.1 V 190 H 46.7 v -0.4 l -0.85,0.05 v -0.15 -0.35 h -0.4 L 45.4,188.8 h -0.6 l -0.65,0.05 v -0.4 l -1.4,0.05 -0.3,-0.2 v -0.25 l -0.4,0.05 v -0.4 H 41.6 v 0.15 l -0.8,-0.3 v -0.3 h -0.4 -0.05 l -0.05,-0.4 h -0.4 c -0.633333,-0.5 -1.35,-0.86667 -2.15,-1.1 v -0.55 l -0.35,0.05 -0.1,-0.4 h -0.45 l -0.05,-0.4 H 36.4 V 184 H 36 v -0.4 h -0.45 v -0.4 l -0.4,0.05 v -0.45 l -0.5,0.05 -0.05,-0.4 H 34.25 V 181.6 H 33.9 l -0.35,-2.2 -7.95,-8.65 -0.4,-0.15 -1.45,-2.55 v -0.8 l -0.45,0.05 -0.05,-0.45 h -0.4 v -0.8 h -0.4 v -0.85 h -0.2 v -0.15 H 22 l -0.05,-0.35 h -0.4 v -0.35 l -0.4,0.05 v -0.9 H 20.7 v -0.75 h -0.4 l -0.05,-0.8 H 19.8 v -0.85 h -0.4 l -0.15,-0.85 -0.4,0.05 v -1.25 H 18.4 l -0.05,-0.9 h -0.4 v -0.75 h -0.4 v -0.85 l -0.45,0.05 v -0.45 h -0.4 l -0.05,-0.4 -0.45,0.05 v -1.25 h -0.4 l -0.05,-1.75 h -0.4 v -0.35 H 14.9 l -0.15,-1.25 h -0.4 v -1.25 L 14,150 13.95,148.75 h -0.5 l -0.2,-6.65 h -0.4 l -0.25,-7.2 v -0.4 H 13 l -0.05,-1.75 h -0.4 v -0.35 h -0.7 -0.05 v -0.5 l -0.9,0.05 v -0.4 H 10.55 L 10.5,131.2 H 10 v -0.9 H 9.6 v -0.45 L 9.2,129.9 9.15,129.1 H 8.7 v -0.85 l -0.8,0.1 v -0.4 H 7.45 v -0.5 h -0.4 l -0.1,-1.6 -0.5,0.05 v -0.5 H 6.05 L 6,123.85 H 5.65 v -1.2 H 5.15 L 5.1,120.55 H 4.7 L 4.65,119.65 4.3,119.7 4.2,118.45 H 3.75 L 3.7,116.75 H 3.3 L 3.2,113.4 H 2.7 v -2.1 H 2.35 l -0.2,-3.4 h 0.4 v -0.75 h -0.4 l -0.1,-3.8 -0.4,0.05 -0.1,-2.1 H 1.05 L 1,98.8 H 0.6 L 0.55,96.3 H 0.1 L 0,94.2 h 0.45 v -0.85 h 0.4 L 0.8,92.45 H 1.25 V 92.1 l 2.5,-0.05 v -0.9 H 3.35 L 3.3,89.05 H 2.85 L 2.6,83.65 H 2.25 L 2.2,81.55 H 1.7 L 1.65,79.45 1.25,79.5 V 78.25 H 0.9 l -0.15,-2.5 h 0.4 L 0.8,65.7 1.2,65.65 V 65.3 H 1.65 L 1.4,56.85 H 1.8 V 55.1 H 2.25 L 2.2,53 H 2.6 L 2.45,51.75 h 0.4 L 2.8,48.85 3.3,48.8 V 48.4 H 4.05 L 4,45.9 H 4.5 L 4.45,45.05 H 4.8 V 44.2 l 0.5,-0.05 -0.15,-0.8 0.4,-0.05 v -1.25 h 0.4 v -0.5 H 6.8 l -0.05,-0.4 h 0.4 V 40.7 L 7.4,40.65 h 0.2 v -0.4 H 8 V 39.1 m 73.7,10.1 0.4,-0.05 v -0.4 l -0.4,0.05 v 0.4 m -4.15,1 -0.85,0.05 -0.1,-0.4 h -0.35 l 0.1,1.65 h 0.4 l 0.05,3 h -0.4 l 0.05,1.6 -1.25,0.05 v 0.9 h -0.45 v 0.45 h -0.4 l 0.05,0.8 -2.1,0.1 -0.05,-1.25 0.4,-0.05 -0.05,-2.9 -0.4,0.05 0.05,1.65 h -0.4 v 1.25 H 71.4 v 0.5 l -0.8,0.05 0.1,1.25 H 70.25 L 70.3,60.2 H 70 v 0.85 H 69.15 L 69.1,59.7 h 0.35 l -0.1,-2.9 H 69.8 V 56.35 H 68.95 L 68.9,54.7 h 0.4 V 53.45 H 68.9 L 68.85,53 h -0.4 l 0.05,1.7 -0.45,0.05 0.05,1.25 h -0.4 v 0.4 h -0.85 v 0.85 h -0.4 v 0.5 L 66,57.8 l 0.05,0.35 h -0.8 L 65.2,57.3 h 0.4 V 56.9 H 66 V 56.05 L 66.45,56 66.4,55.15 65.95,55.2 v 0.45 h -0.4 l 0.05,0.4 h -0.85 v 0.4 h -0.4 v 0.45 l -0.5,0.15 v 0.4 H 63.5 v 0.45 h -0.4 l 0.05,0.4 h -0.5 v 0.4 L 61,58.75 60.95,57.95 h 0.4 V 57.1 L 62.2,57.05 V 56.2 h 0.4 l -0.05,-0.4 h 0.5 v -0.45 h 0.4 v -0.8 h -1.3 v 0.4 H 61.8 v 0.85 l -0.5,0.05 0.05,0.4 H 60.5 L 60.45,55.4 h 0.45 v -0.8 h 0.4 l -0.05,-1.35 0.5,-0.05 V 51.95 L 61.25,52 v 0.5 h -0.4 v 0.35 H 60.4 v 0.4 H 60 l 0.05,0.5 h -0.4 v 0.35 l -0.45,0.05 v 0.5 h -0.4 v 0.4 h -0.4 v 0.4 H 57.95 V 55.9 L 57.1,55.95 V 55.1 l 0.45,-0.05 v -0.4 h 0.4 v -0.5 h -0.4 v 0.5 L 56.7,54.7 v 0.4 L 55,55.15 v 0.4 l -0.8,0.05 0.05,0.45 -2.6,0.05 -0.05,-0.85 H 51.2 V 54 h 0.4 l -0.05,-0.45 h 0.5 v -0.4 h -0.9 V 52.3 H 50.8 l -0.05,-0.85 -0.5,0.05 0.05,0.45 h -0.7 v 0.4 h -0.45 v 0.45 h -0.4 v 0.4 l -0.85,0.05 v 0.4 h -0.4 l 0.05,0.45 -0.85,0.1 v 0.4 L 45.85,54.65 45.8,53 46.15,52.95 v -0.5 L 47.5,52.4 V 52 h 0.4 l -0.05,-0.45 0.4,-0.05 V 51.1 H 48.7 L 48.6,50.7 H 49 v -0.45 h 0.5 v -0.4 H 49 v -0.4 l -1.65,0.05 -0.05,-0.45 -3.35,0.1 v -0.4 L 37.15,49 V 48.5 L 33,48.6 v -0.35 l -1.7,0.05 v 0.35 l -1.25,0.1 v 0.85 l -0.4,0.05 0.05,0.5 h -0.4 v 0.35 h -0.85 v 0.4 l -0.8,0.05 v 0.5 H 26.8 l 0.05,0.35 H 26 l 0.05,0.4 -0.85,0.05 v 0.5 h -0.8 v 0.35 h -0.85 v 0.5 l -0.85,0.05 v 0.4 l -0.85,0.05 0.05,0.4 -0.8,0.05 V 55 h -0.85 v 0.9 H 19.8 v 0.4 h -0.4 v 0.35 H 19 l 0.05,0.9 h 0.4 l 0.05,2.1 h 0.85 l 0.05,0.85 h -0.45 v 0.4 h -0.4 l 0.05,0.4 h -0.4 v 0.45 l -0.45,0.05 v 0.4 h -0.4 v 0.45 h -0.4 v 0.8 H 17.5 l 0.05,0.45 h 0.85 l -0.05,-0.45 h 0.4 v -0.4 L 19.6,63 V 62.6 H 20 v -0.45 h 0.85 l 0.05,1.7 0.5,-0.05 v 0.4 h 0.4 v 1.25 l -0.9,0.05 0.05,0.5 h -0.4 v 0.35 l 0.9,-0.05 v 1.65 L 20.95,68 21,68.4 h -0.4 l 0.1,0.4 h -0.45 v 0.45 H 20.7 V 68.8 l 0.85,-0.05 -0.1,-0.8 h 1.25 l 0.1,1.65 H 22.35 V 70 h -0.8 l 0.05,0.45 -1.3,0.05 v 0.4 h -0.8 v 0.45 l -0.45,0.05 v 0.4 l 0.45,-0.05 v -0.4 h 0.8 V 70.9 l 2.1,-0.05 v -0.4 l 1.35,-0.1 v 1.25 l -0.5,0.05 v 0.4 l -2.1,0.1 0.05,0.45 H 20.35 V 73 l 1.3,-0.05 v 1.25 h 0.8 l 0.05,0.9 h -0.4 v 0.35 h -0.4 v 1.35 l -1.3,0.05 0.1,1.25 h -0.75 v 0.4 l -0.5,0.05 v 0.4 H 18.5 l 0.05,0.45 h -0.5 v 0.4 H 17.2 v 0.45 l -0.4,0.05 v 0.8 h -0.4 v 0.45 h -0.45 l 0.05,0.4 h -0.8 v 0.85 l -0.45,0.15 v 0.4 h -0.4 v 0.45 h 0.4 l 0.1,2.1 H 14.5 l 0.05,0.7 h -0.5 v 1.75 h -0.4 l 0.05,0.85 h -0.35 v 0.4 h 0.35 l 0.05,2.1 H 13.4 v 0.85 h 0.35 l 0.2,4.15 h -0.4 l 0.35,10.1 h -0.5 l 0.35,11.75 h 0.45 l 0.2,5.8 -0.85,0.05 v -0.8 h -0.4 v -0.8 h -0.5 v -0.4 H 12.3 l -0.05,-0.85 h -0.4 v -1.25 h -0.4 l -0.05,-0.85 -0.4,0.05 -0.05,-0.85 h -0.5 L 10.4,117 H 10 v -0.85 H 9.55 L 9.5,115.25 H 9.1 v -1.6 L 8.7,113.7 8.65,112.45 H 8.2 L 8.15,111.1 H 7.75 L 7.7,109 7.3,109.05 7.05,102.4 7.45,102.35 7.4,101.95 7,102 6.95,97.8 5.65,97.85 5.6,97 H 5.2 V 96.6 H 4.8 L 4.75,95.35 H 4.3 v -0.4 L 3.9,95 V 94.55 H 2.65 V 95 h -0.5 l 0.05,2.5 h 0.5 l 0.1,2.5 h 0.4 v 2.1 h 0.45 l 0.15,3.7 h 0.4 l 0.1,3.35 0.4,-0.05 0.25,6.8 H 5.4 l 0.05,2.9 h 0.4 l 0.05,0.85 h 0.4 l 0.05,2.15 0.5,-0.05 0.05,1.25 h 0.4 v 0.8 h 0.45 v 0.4 l 0.4,-0.1 0.05,0.8 h 0.4 v 0.4 h 0.45 v 0.45 l 0.4,-0.05 v 0.8 h 0.4 l 0.1,0.85 h 0.5 v 0.45 h 0.35 v 0.4 h 0.5 v 0.4 l 0.4,-0.05 V 129 h 0.35 l 0.05,0.4 h 0.4 v 0.4 h 0.4 v -0.4 l 1.7,-0.05 0.1,5.1 h 0.4 l 0.2,4.15 h -0.4 l 0.05,2.55 h 0.4 l 0.15,4.15 h 0.4 v 1.65 l 0.5,-0.05 0.05,1.75 h 0.35 l 0.05,0.75 0.5,-0.05 0.05,2.1 -0.5,0.05 0.1,0.9 0.85,-0.1 v 0.4 h 0.4 l 0.05,1.35 h 0.45 v 0.75 l 0.4,-0.05 v 0.85 h 0.4 l 0.05,0.9 h 0.45 v 0.85 h 0.4 v 0.75 h 0.5 l 0.05,0.9 0.35,-0.05 v 0.45 h 0.4 v 0.4 h 0.5 l 0.1,0.85 h 0.4 v 0.8 h 0.4 v 0.75 l 0.45,-0.05 0.05,1.25 h 0.4 v 0.5 h 0.45 v 0.75 h 0.4 l 0.05,0.9 h 0.4 v 0.85 l 0.5,-0.05 v 0.4 l 0.3,-0.1 h 0.95 l 0.05,0.85 h -0.4 v 0.5 h 0.4 l 0.05,0.75 h 0.4 l 0.05,0.5 H 28.1 V 170 l 0.4,-0.05 v 0.5 h 0.4 v 0.85 h 0.45 l 0.05,0.4 h 0.4 v 0.85 h 0.5 v 0.4 l 0.35,-0.05 0.05,0.85 h 0.4 v 0.4 h 0.5 V 175 h 0.35 v 0.4 h 0.4 l 0.05,0.85 0.5,-0.05 v 0.4 h 0.35 l 0.1,0.45 h 0.4 v 0.4 h 0.4 l 0.05,0.85 h 0.35 v 0.4 l 0.5,-0.05 v 0.45 l 0.4,-0.05 v 0.85 h 0.45 l 0.05,0.8 h 0.4 v 0.4 h 0.4 v 0.35 h 0.45 v 0.4 l 0.4,-0.05 0.05,0.9 h 0.4 v 0.45 h 0.85 v 0.4 h 0.45 v 0.4 h 0.4 v 0.45 l 0.85,-0.05 0.05,0.4 h 1.25 l 0.1,0.4 0.85,-0.05 v 0.45 l 0.4,-0.1 v 0.4 h 0.4 v 0.5 l 0.85,-0.05 v 0.35 h 0.85 l 0.05,0.4 1.25,-0.05 v 0.5 h 0.4 v 0.35 h 1.75 v 0.5 l 0.85,-0.05 v 0.4 h 0.75 l 0.05,0.35 0.9,-0.05 v 0.5 l 1.25,-0.1 v 0.4 l 0.85,-0.05 v 0.4 l 2.4,-0.05 v 0.45 h 0.9 v 0.4 h 0.85 l 0.05,0.5 2.95,-0.2 -0.05,-0.45 11.75,-0.35 v -0.4 h 1.25 v -0.45 l 1.25,-0.05 v -0.4 h 0.4 v -0.4 h 0.4 L 75.55,188.3 76,188.25 v -0.4 l 0.8,-0.1 v -0.35 h 0.45 v -0.5 h 0.85 v -0.4 l 0.8,-0.05 -0.05,-0.45 h 0.85 v -0.4 l 0.85,-0.05 v -0.4 h 0.4 v -0.85 h 0.85 v -0.45 h 0.4 l -0.1,-0.4 h 0.45 v -0.4 L 83.4,183 v -0.45 h 0.4 v -0.4 h 0.4 v -0.4 h 0.45 L 84.6,180.9 85,180.75 v -0.45 h 0.85 v -0.4 h 0.4 v -0.4 h 0.45 l -0.05,-0.4 0.4,-0.05 v -0.35 h 0.4 v -0.4 h 0.45 v -0.5 h 0.4 v -0.35 h 0.4 v -0.5 l 0.85,-0.05 -0.05,-0.4 H 90 v -0.35 h 0.4 v -0.5 h 0.35 v -0.4 h 0.5 l -0.1,-0.45 0.4,-0.05 -0.05,-0.4 h 0.45 v -0.4 h 0.4 v -0.85 l 0.85,-0.05 -0.05,-0.9 h 0.4 v -0.85 l 0.3,-0.05 v -0.4 h 0.5 v -0.4 h 0.4 L 94.7,170 h 0.45 v -0.4 h 0.4 v -0.4 l 0.4,-0.05 v -0.45 h 0.45 v -0.4 h 0.4 v -0.45 h 0.85 l -0.05,-0.4 0.4,-0.05 v -0.85 h 0.45 l -0.05,-0.4 h 0.4 v -0.4 h 0.35 L 99.1,165.3 h 0.5 v -0.4 h 0.4 v -0.85 l 0.45,-0.05 v -0.85 l 0.75,-0.1 v -0.4 h 0.45 v -0.45 h 0.4 v -0.8 l 0.4,-0.05 -0.05,-0.85 h 0.45 v -0.85 h 0.4 v -0.35 h 0.45 l -0.05,-0.85 h 0.4 v -0.4 h 0.4 l -0.1,-0.85 0.5,-0.05 v -0.85 h 0.4 l -0.05,-0.85 h 0.35 v -0.8 h -0.35 v -0.45 h -0.4 l -0.05,-1.25 h 1.65 l -0.05,-3 0.45,-0.05 -0.15,-0.75 h 0.4 v -0.5 h 0.4 l -0.1,-4.6 h 0.45 l -0.05,-1.65 h 0.4 l -0.15,-6.25 0.85,-0.15 -0.05,-0.45 -0.85,0.15 v -1.25 l 0.45,-0.1 -0.05,-0.8 0.4,-0.05 v -0.85 h 0.85 l -0.05,-0.45 h 0.35 v -0.8 h 0.4 l -0.05,-0.45 0.5,-0.05 v -0.4 h 0.35 v -0.4 h 0.9 v -0.85 h 0.35 l -0.05,-0.5 h 0.4 V 128 l 0.8,-0.05 -0.05,-1.35 h 0.45 v -0.75 h 0.4 v -0.9 h 0.5 l -0.05,-0.85 0.35,-0.05 -0.05,-0.85 h 0.4 v -0.8 h 0.45 l -0.05,-1.2 h 0.4 v -0.75 l 0.4,-0.1 -0.05,-0.45 h 0.45 l -0.3,-9.25 0.9,-0.05 -0.25,-6.7 h -0.45 l 0.2,5.05 -0.4,0.05 v 1.65 h -0.45 l 0.1,4.25 -0.4,0.05 0.15,1.65 h -0.4 l 0.05,1.7 h -0.45 v 0.4 h -0.4 v 0.5 l -0.4,0.05 V 120 h -0.45 l 0.05,1.25 h -0.4 V 122 h -0.5 l 0.05,0.85 h -0.35 v 0.85 l -0.4,0.05 0.1,0.9 h -0.4 V 125 h -0.35 v 0.9 h -0.4 v 0.35 h -0.85 V 125.4 H 111 V 125 l -0.85,0.05 -0.1,-2.1 h 0.45 l -0.1,-4.85 0.4,-0.05 -0.05,-1.75 h 0.45 v -0.4 h -0.45 l -0.15,-2.1 h 0.5 l -0.1,-2.95 h 0.4 l -0.05,-3 h 0.35 l -0.2,-6.15 h 0.4 v -0.9 h 0.35 l -0.1,-2.95 0.4,-0.05 -0.05,-2.5 -0.4,0.05 -0.05,-1.25 h -0.4 v -0.85 h -0.4 l -0.15,-3.4 h 0.35 V 88.6 h -0.35 l -0.05,-1.25 h -0.4 l -0.05,-2.1 h 0.4 l -0.05,-1.7 h -0.4 l -0.1,-1.2 h -0.4 L 110,81.5 l -0.45,0.05 v -0.4 h -0.4 v -0.4 h -0.45 l -0.05,-1.3 h 0.45 v -0.4 h -0.45 v -0.4 h -0.4 l -0.05,-1.7 h -0.4 v -0.9 h -0.45 l -0.05,-1.6 h 0.45 L 107.7,73.2 h 1.6 l -0.05,-0.5 h -0.35 v -0.4 h -0.5 V 71.95 H 108 v -0.5 h -0.35 v -0.4 h -0.5 l -0.05,-1.7 h 1.25 v -0.4 h -0.75 l -0.05,-0.85 h -0.5 v -0.85 h 1.25 v -0.4 h -0.75 L 107.4,65.2 h 0.8 v -1.25 h -0.4 l -0.05,-0.4 h -0.4 l 0.05,0.4 -0.85,0.05 -0.05,-0.8 -1.25,0.1 -0.05,-2.1 2.1,-0.15 v 0.4 h 0.4 l 0.05,0.45 h 0.4 l -0.05,-0.45 h -0.4 v -0.4 h -0.4 V 60.6 l -0.45,0.05 v -0.4 h -0.4 v -0.4 h -0.4 V 59.4 l -0.85,0.05 -0.05,-1.65 2.1,-0.1 -0.1,-0.5 -0.45,0.05 -0.05,-0.35 h -0.8 v -0.4 l -1.7,0.1 V 55.75 L 105,55.7 104.95,54.85 104.1,54.9 v -1.25 h -0.4 l -0.05,-1.25 h -0.85 v -0.5 l -0.85,0.05 V 51.6 h -0.4 V 51.2 H 100.7 V 50.7 L 99.45,50.75 99.4,50.4 h -0.85 v -0.5 l -1.65,0.15 v -0.4 L 95.15,49.7 95.1,49.3 H 93.35 V 48.85 L 91.7,48.9 V 48.5 L 90,48.55 89.95,48.15 88.4,48.3 v -0.5 l -3,0.05 v 0.5 l -1.65,0.05 0.05,0.75 h -1.25 l 0.1,0.9 h 0.4 l 0.05,1.25 h -0.4 v 0.45 h 0.4 v 0.4 h 0.4 V 53 h 0.45 L 84,55.1 h -1.7 v -0.45 l -0.4,0.05 v -0.4 h -0.85 v -0.4 l -0.4,0.1 v -0.5 h -0.5 L 80.1,53.15 h -0.4 v -0.5 l -0.35,0.05 v -0.4 h -0.5 v -0.85 h -0.4 v -0.4 H 78 L 77.95,50.6 h -0.4 V 50.2 M 67,49.65 v 0.5 h -0.4 l 0.1,0.4 h -0.4 v 0.35 l -0.45,0.05 0.05,0.9 h -0.4 v 0.85 h -0.4 l 0.05,0.85 H 64.7 v 0.85 h 0.45 v -0.45 h 0.4 L 65.5,53.1 h 0.4 v -0.4 l 0.45,-0.05 v -0.4 h 0.4 V 51.4 h 0.4 L 67.1,50.55 h 0.45 l -0.1,-0.9 H 67 m -8,0.75 v -0.45 h -0.75 v 0.45 h -0.5 l 0.1,0.4 h -0.4 v 0.4 L 57,51.25 57.05,51.7 h -0.8 v 0.4 H 55.8 v 0.5 l -0.4,0.05 v 0.4 h -0.45 v 0.4 l -0.4,0.05 0.05,0.45 0.85,-0.05 -0.05,-0.85 0.85,-0.1 V 52.6 h 0.4 V 52.1 L 57.5,52.05 57.45,51.2 h 0.4 V 50.8 H 58.3 L 58.25,50.4 H 59 M 53.55,49.35 53.5,48.9 h -0.4 l 0.05,0.45 h 0.4 m 46.3,43.8 3.4,-0.1 0.05,0.4 h 0.35 v 0.4 h 0.5 v 0.85 l 1.25,-0.05 v 0.5 h 0.85 l 0.05,0.75 1.25,-0.05 v 1.7 l 0.4,-0.05 0.05,0.85 h 0.45 l 0.1,1.25 h 0.4 l 0.05,1.25 -1.25,0.05 v -0.35 h -0.4 l -0.05,-0.9 -0.5,0.1 -0.05,-0.85 h -0.85 v -0.4 l -0.8,0.05 v -0.5 h -1.7 l -0.05,-0.35 -0.4,0.05 v -0.5 l -2.6,0.05 v 0.5 l -3.7,0.1 -0.05,-0.45 -0.85,0.05 0.05,0.85 -1.65,0.05 v 0.45 l -2.6,0.05 v 0.4 l -1.95,0.15 v 0.4 l -3.8,0.05 0.05,0.45 -1.65,0.05 0.05,0.4 -1.3,0.05 v 0.45 l -1.25,0.1 v 0.4 l -1.25,0.05 v -0.9 h -0.4 v 0.5 h -0.5 v 0.75 H 79.2 v 0.5 l -0.9,0.05 0.05,0.4 H 77.5 v 0.3 h -0.4 v 0.45 l -1.25,0.05 V 103.2 H 75.5 l -0.05,-0.4 H 74.1 l 0.05,0.4 -0.4,0.1 v 0.3 H 72.9 v 1.35 L 71.35,105 v -1.35 l 0.75,-0.05 -0.05,-0.7 h 1.25 v -0.85 l 0.8,-0.1 v -0.9 h 0.85 l -0.1,-0.85 h 0.45 v -0.4 h 0.4 v -0.35 h 0.4 v -0.5 l 0.45,-0.05 v -0.4 h 0.8 v 0.9 h 0.45 v -0.5 l 0.85,-0.05 v -0.4 h 0.4 L 79,98 h 0.4 v -0.4 h 0.45 v -0.4 l 0.85,-0.05 v 0.8 h 0.8 v -0.4 l 1.25,-0.05 v -0.4 l 1.35,-0.05 v -0.5 l 1.65,-0.05 v -0.35 h 0.35 l -0.05,-0.4 1.75,-0.05 0.05,0.4 h 0.4 L 88.2,95.7 h 0.45 V 95.2 L 89.9,95.15 V 94.8 l 0.85,-0.1 v -0.45 h 0.4 v -0.4 L 93.2,93.8 v 1.25 h 0.4 v -0.4 l 0.85,-0.05 v -0.45 l 2.1,-0.05 v -0.4 l 3.35,-0.15 -0.05,-0.4 M 65.1,51.45 65.05,50.95 H 64.6 l 0.05,0.5 h -0.4 v 0.85 h 0.4 v -0.85 h 0.45 m 52.85,45.8 h -0.75 l 0.15,3.75 h 0.4 l -0.15,-2.5 h 0.4 l -0.05,-1.25 m -63.6,2 h 0.75 v 0.85 h 0.5 l 0.1,1.25 0.4,-0.05 v 0.85 h 0.4 l 0.05,1.3 -1.25,0.05 -0.05,-0.5 h -0.4 v -0.4 h -0.4 v -0.4 l -1.7,0.05 v -0.45 h -0.4 l -0.15,-0.85 h -0.45 l 0.15,0.85 -1.2,0.05 v -0.4 H 50.3 L 50.2,101 h -0.5 v -0.4 l -1.25,0.15 v -0.4 H 48.1 v -0.5 H 47.6 V 99.5 l -0.75,0.05 v 0.35 l -3,0.05 V 99.6 L 42.2,99.65 V 100 h -1.3 v -0.35 l -1.25,0.1 V 99.3 h -0.9 L 38.7,98.9 H 37.95 V 98.5 L 36.2,98.55 V 98.1 l -1.65,0.05 v -0.4 l -2.1,0.05 v -0.4 l -1.65,0.15 -0.05,-0.5 h -1.6 v -0.4 l -1.3,0.05 v -0.45 l -4.2,0.2 V 96.9 H 23.2 l 0.05,0.4 h -0.4 v 0.45 l -2.1,0.05 v 0.8 h -0.9 L 19.8,96.95 h 0.5 V 96.1 h 0.75 v -0.4 h 0.9 V 95.25 L 23.2,95.2 23.15,94.8 H 23.6 V 94.4 L 24,94.3 v -0.45 l 0.85,-0.05 -0.1,-0.4 2.15,-0.05 V 92.9 h 1.25 l -0.05,-0.4 0.85,-0.05 v -0.4 l 6.2,-0.15 v 0.35 l 0.45,-0.05 0.05,0.4 h 1.25 v 0.5 l 1.25,-0.05 0.1,0.35 h 0.85 v 0.5 h 0.85 v 0.4 l 0.4,-0.15 v 0.4 H 41.2 L 41.25,95 h 0.4 L 41.6,94.15 42.45,94.1 v 0.4 h 0.85 l 0.05,0.45 1.25,-0.05 v 0.4 h 0.85 v -0.4 l 1.65,-0.05 v 0.4 h 0.4 v 0.4 H 48 v -0.4 l 1.25,-0.1 V 95.5 H 50.5 V 96 h 0.75 v 0.4 l 0.4,-0.05 0.05,0.45 h 0.45 v 0.8 h 0.4 v 0.45 h 0.4 v 0.4 h 0.45 v 0.4 l 0.9,-0.05 0.05,0.45 m 38.25,3.7 h 1.25 v 0.45 l 1.25,-0.05 v 0.4 h 0.85 v 0.45 l 0.9,-0.05 v 0.4 h 0.85 l 0.05,0.4 h 0.4 v 0.45 L 99,105.35 v 0.8 l 0.4,-0.1 v 0.5 h 0.45 l 0.05,0.4 h 0.4 v 0.45 h 0.4 v 0.4 h 0.45 l 0.1,0.35 h 0.4 l 0.05,1.3 -0.9,0.05 -0.05,-0.45 h -0.4 v -0.4 H 100 v 0.4 l -0.85,0.1 v 0.45 l -0.85,0.05 v 0.8 h 0.5 v 0.85 h -0.5 l 0.05,0.4 h -0.4 l -0.05,-0.4 h -0.45 v -1.25 h -0.4 v 0.85 l -0.85,0.05 0.05,1.65 h -0.4 l -0.05,-1.65 h -0.85 v 0.4 h -0.4 l 0.05,1.25 -0.45,0.05 -0.05,-1.25 -3.7,0.1 v -0.4 l -1.7,0.05 v 0.4 h -0.4 v -0.4 l -0.85,0.05 v -0.45 H 86.2 v -0.4 h -0.4 v -0.85 h 0.8 v 0.45 l 1.3,-0.05 v 0.4 l 3.35,-0.1 v -0.4 l -2.55,0.1 v -0.45 h -0.8 l -0.05,-0.4 -0.45,0.05 v -0.45 H 87 l -0.1,-0.4 h -0.45 v -0.4 h -0.4 v -0.45 h -0.4 l -0.05,-2.1 -1.25,0.05 v 0.45 H 83.9 v 0.4 l -0.85,0.05 v 0.85 h -0.4 l 0.05,0.4 -0.85,0.05 v 0.5 h -0.8 v 0.4 l -0.45,0.05 0.05,0.35 1.25,-0.05 -0.05,-0.35 2.1,-0.15 0.1,0.85 -0.9,0.05 0.05,0.4 -2.5,0.15 v 0.45 h -1.65 l -0.05,-0.85 -0.45,0.05 -0.1,-0.85 0.9,-0.05 v -0.4 h 0.35 v -0.5 h 0.5 L 80.15,107.25 81,107.2 v -0.5 h 0.8 v -0.4 h 0.45 v -0.35 l 0.4,-0.1 v -0.45 l 0.85,-0.05 v -0.4 h 0.4 l -0.05,-0.4 1.7,-0.05 v -0.45 h 0.8 v -0.4 h 0.45 v -0.5 l 0.9,-0.05 v -0.3 h 0.75 v 0.3 l 1.75,-0.05 v -0.3 l 2.4,-0.1 v 0.3 m 0.25,6.8 v 0.4 h 1.25 v -0.4 l 2.1,-0.05 v -0.45 L 97.05,109.2 97,108.8 h 0.4 v -0.5 h 0.45 l -0.05,-0.75 h 0.4 v -0.5 h -0.4 l -0.05,-0.4 H 96.9 v -0.45 l -0.9,0.05 v -0.4 h -0.85 v 0.85 h -0.4 l 0.05,0.9 h -0.35 l 0.05,1.25 -0.85,0.05 0.05,0.4 h -0.4 v 0.45 H 92.85 M 86,104.9 v 0.4 h 0.4 v -0.4 H 86 m 6.25,0.15 v 0.45 h 0.4 v -0.45 h -0.4 M 89,105.7 88.95,104 h -0.5 v 0.45 H 87.7 l 0.05,0.8 -0.5,0.05 0.05,2.1 0.5,-0.05 v 0.45 h 0.75 v 0.4 L 92.7,108 v -0.35 h 0.5 v -0.5 h 0.35 l -0.05,-0.4 h 0.4 v -1.7 h -0.75 v 1.25 h -0.9 v 0.45 l -1.15,0.05 0.05,0.4 -0.5,0.1 -0.05,-0.4 -1.6,0.05 v -0.45 h -0.5 v -0.8 H 89 m 3.05,6.15 v 1.3 H 91.7 v -1.3 h 0.35 m -33.75,-6.1 v 0.9 l 0.4,-0.05 0.05,1.25 h 0.5 v 1.25 h -0.5 l 0.15,2.95 h 0.45 l 0.35,9.25 h -0.5 v 1.2 h -0.4 l 0.05,1.15 -0.35,0.05 v 1.25 H 58 l 0.15,1.35 -0.4,0.05 v 0.8 H 57.3 V 128 h -0.4 l 0.05,0.4 -0.4,0.05 v 1.35 H 56.1 l 0.05,0.75 h -0.4 v 0.9 h -0.4 v 0.85 H 54.9 l 0.05,0.85 h -0.4 v 0.8 l -0.5,0.05 0.1,0.45 h -0.4 v 0.4 h -0.4 l 0.05,0.85 h -0.45 v 0.4 h -0.4 v 0.45 l -0.8,0.05 V 137 H 51.4 l 0.05,0.4 h -0.5 v 0.45 h -0.4 v 0.9 H 50.2 l 0.05,2.1 -0.5,0.1 v 0.4 l 0.85,-0.1 v 0.35 H 51 l 0.05,0.5 h 0.5 v 0.3 h 0.35 l 0.1,0.4 0.45,-0.05 v 0.85 h 0.35 l 0.05,0.85 h 0.35 v 0.4 h 0.5 v 0.85 h -0.85 v -0.35 l -0.8,0.05 v -0.5 h -0.4 v -0.4 H 50.8 l -0.05,-0.85 h -0.4 v -0.4 l -0.85,0.15 -0.1,-0.85 H 48.95 L 48.85,138 h 0.45 v -0.45 h 0.4 l -0.05,-0.4 0.5,-0.15 v -0.85 h 0.35 v -0.4 h 0.9 v -0.4 h 0.35 l -0.05,-0.45 0.5,-0.05 v -0.4 h 0.3 L 52.45,134 h 0.35 v -0.4 h 0.5 v -0.4 h 0.4 l -0.05,-0.85 H 54 v -0.4 l 0.5,-0.05 v -0.85 h 0.4 l -0.05,-0.85 h 0.45 v -0.9 h 0.4 v -0.35 h 0.4 l -0.05,-0.9 h 0.45 v -2.1 l 0.4,-0.05 -0.15,-0.85 h 0.4 v -0.8 h 0.45 l -0.05,-1.25 0.4,-0.05 v -0.75 h 0.5 v -0.85 l 0.35,-0.05 -0.1,-2.5 h 0.4 L 59,116.65 h -0.4 l -0.05,-4.2 -0.4,0.05 -0.15,-4.6 h -0.5 l -0.05,-2.15 h 0.85 m 13.85,24.8 v 0.85 H 71.3 v -0.5 h -0.4 v -0.85 h 0.8 v 0.5 h 0.45 m 1.15,-0.95 0.05,0.9 h 0.4 v 1.25 h 0.45 l 0.05,0.85 h 0.4 l 0.05,1.2 0.4,-0.1 0.05,0.9 h 0.5 v 0.35 h 0.85 v 0.9 h 0.4 l 0.05,1.6 0.35,-0.05 v 0.9 h 0.5 l 0.05,2.1 h -0.5 l 0.15,1.55 -0.4,0.05 v 0.85 h -0.4 v 0.5 H 75.4 V 142 h 0.45 l -0.05,-0.7 h 0.85 l -0.05,-1.7 h -0.5 l -0.05,-1.65 H 75.7 l -0.05,-1.35 h -0.5 v -0.75 l -0.4,0.05 v -0.85 l -0.35,0.05 v -0.4 h -0.9 l -0.05,-0.85 H 73.1 L 73,133 h -0.45 l -0.05,-0.85 h 0.45 v -1.3 H 72.5 V 130 l -0.35,0.05 -0.05,-0.75 0.8,-0.05 v 0.35 h 0.4 m -18.9,13.15 0.5,-0.05 v 0.45 h 0.4 v 0.4 h -0.4 l 0.05,0.45 -0.85,0.05 -0.05,-0.45 h -0.4 v -0.85 h -0.5 l -0.05,-0.4 h 0.45 v -0.3 h 0.8 l 0.05,0.7 m 6.4,3.15 0.05,0.45 3,-0.1 v 0.4 h 1.65 v -0.4 l 0.85,-0.05 -0.05,-0.45 0.85,-0.1 v -0.4 H 68 v -0.4 l 0.8,-0.05 v -0.45 h 0.45 v -0.4 h 0.8 v -0.4 l 0.45,-0.05 -0.05,-0.45 h 0.4 v -0.4 l 2.5,-0.05 0.05,0.85 h -0.45 v 0.4 l -0.8,0.05 v 0.4 H 70.9 v -0.4 l -0.85,0.05 v 0.4 h -0.4 v 0.45 h -0.4 v 0.4 H 68.4 v 0.4 l -0.4,0.05 0.05,0.45 -1.3,0.1 v 0.4 l -1.25,0.05 v 0.45 h -0.4 v 0.4 h -0.9 v 0.4 h -0.35 v -0.4 l -1.25,0.05 v -0.4 l -1.25,0.05 v -0.45 h -0.5 v -0.4 h -0.4 L 60.4,145.9 h 0.4 m 56.15,-43.75 v 0.45 h 0.45 v -0.45 h -0.45 m -19.05,8.3 v 0.85 h 0.4 v -0.85 H 97.9 M 8.55,42.35 V 42 h -0.5 v 0.35 h -0.4 v 0.4 L 7.2,42.8 7.25,43.65 7.7,43.6 7.65,42.75 h 0.4 v -0.4 h 0.5 M 29.2,20.95 V 20.8 h 0.05 l -0.05,0.15 m -16.3,109.7 h -0.4 v 0.5 h 0.4 v -0.5 M 8.95,109.8 H 9.3 v -0.4 H 8.95 v 0.4 m 0,-0.85 -0.05,-0.4 -0.4,0.05 0.05,0.4 0.4,-0.05 m -0.45,-1.2 v -0.4 H 8 v 0.4 h 0.5 m -0.25,-5.8 0.15,0.85 0.4,-0.05 -0.15,-0.85 -0.4,0.05 M 11.9,97.6 v 0.5 h 0.45 V 97.6 H 11.9 M 53,99.7 v -0.4 h -0.4 v 0.4 H 53 m -3.35,-2.85 h 0.5 v 0.4 h 0.4 v -0.4 h -0.4 L 50.1,96.4 h -0.5 l 0.05,0.45 M 13.85,81.2 h -0.4 v 0.5 h -0.4 l 0.05,0.4 h 0.4 l -0.05,-0.4 h 0.4 v -0.5 m 6.95,-6.45 h 0.4 v -0.5 h -0.4 v 0.5 m -2.75,-8.7 h 0.4 L 18.4,65.55 H 18 l 0.05,0.5 m 1.25,1.1 h 0.8 v -0.8 h -0.4 v 0.4 h -0.4 v 0.4 l -1.7,0.05 v 0.4 h -0.4 v 0.45 h 1.65 V 67.6 l 0.45,-0.05 v -0.4 M 16.65,61.4 v 0.45 L 17.1,61.8 v -0.45 l -0.45,0.05 m 0.3,-4.2 H 17.3 L 17.25,56.7 H 16.9 l 0.05,0.5 M 52.9,53.1 v -0.4 l -0.5,0.05 v 0.4 l 0.5,-0.05 m -2.75,-5 v 0.5 l 1.25,-0.05 v -0.5 l -1.25,0.05 m -1.5,56.3 0.45,-0.05 v 0.85 l 0.8,-0.05 0.05,1.25 -0.8,0.05 v -0.4 l -0.45,0.1 v -0.4 H 48.3 L 48.25,104.9 H 47.8 v -0.5 h -0.4 v -0.3 l -0.4,0.05 v -0.4 h -0.45 v 0.4 H 45.3 l 0.05,2.05 h -0.4 v 0.35 l -0.85,0.05 v 0.9 l 1.25,-0.05 v -0.4 l 2.5,-0.05 v 0.75 h -0.4 l 0.05,0.5 -2.1,0.05 v 0.4 l -2.15,0.05 v 0.85 H 42.9 v -0.85 l -0.4,0.05 v 0.45 h -0.85 v 0.4 h -0.5 v -0.4 l -1.65,0.15 v 0.35 h -0.45 v -0.35 h -0.8 v 0.35 l -0.45,0.05 v -0.35 h -0.4 l 0.1,0.75 h -0.4 l 0.05,0.5 h -0.5 l -0.05,-0.5 h -0.35 l -0.1,-1.25 -1.25,0.05 v -0.4 h -0.85 v 0.4 h -0.4 v 0.5 l -0.45,0.05 v -0.5 L 33.65,109 v -0.4 l -0.85,0.05 -0.05,-0.45 -0.85,0.1 v -0.4 l -1.2,0.05 v -0.4 h 0.4 v -0.45 h -0.85 v 0.45 L 29,107.6 v -0.85 l 0.45,-0.05 v -0.4 h 0.4 l -0.05,-0.85 h 0.85 v -0.5 h 0.4 v -0.7 l 1.15,-0.05 -0.05,-0.45 0.9,-0.1 v -0.4 l 0.85,-0.05 v -0.85 L 36,102.3 v 0.85 l -0.45,0.05 0.05,0.9 0.45,-0.05 v 0.7 h 0.4 v 0.45 h 0.45 v -0.8 h 0.4 l -0.05,-1.6 h -0.4 v -0.5 h 0.4 v -0.4 l 1.25,-0.05 v 0.4 l 3.85,-0.1 v 0.45 l 0.4,-0.05 v -0.45 l 2.1,-0.05 v 0.45 h 1.65 v 0.4 l 0.85,-0.05 v 0.4 h 0.4 l 0.05,0.45 h 0.45 v 0.4 h 0.4 v 0.3 m 2.95,1.55 v 0.4 H 52 v 0.85 h 0.45 l 0.05,0.85 h -0.45 v 0.4 l -1.2,0.05 v -0.4 h -0.4 l -0.05,-0.45 -2.1,0.1 V 107 l 2.5,-0.15 v -0.45 h -0.4 l -0.05,-1.25 h 0.9 l 0.05,0.85 0.3,-0.05 m -7.15,-0.1 -0.05,-0.5 h -0.35 l 0.05,0.5 h 0.35 m -0.8,-1.35 v -0.7 h -0.5 v 0.7 h 0.5 m 7.65,2.35 h -0.5 v 0.4 h 0.5 v -0.4 m -9.35,-0.95 -0.05,-0.5 h 0.5 l 0.05,0.5 h -0.5 v 0.4 H 41.6 v -0.4 h 0.35 m 0.45,-2.05 v 0.7 l 0.4,-0.05 -0.05,-1.15 -0.9,0.05 0.05,0.45 h 0.5 M 40.7,105.9 39,106 v 0.4 H 38.6 V 106 l -1.25,0.05 v 0.4 h 0.4 v 0.4 l 0.85,-0.05 v 0.45 h 0.85 v -0.45 h 0.4 v 0.45 l 1.75,-0.1 v -0.5 h 0.35 v 0.5 h 0.5 V 106.3 L 43.2,106.25 43.15,105 H 42.8 v 0.35 l -0.4,0.05 v -0.35 h -0.5 v 0.35 h -0.35 l 0.05,0.5 h -0.5 v 0.4 h -0.4 v -0.4 m -3,-1.15 h -0.4 v 0.85 l 0.85,-0.05 v -0.4 l -0.45,0.05 v -0.45 m -3.75,0.9 v -1.2 l -1.25,0.05 v 1.2 l -0.5,0.1 0.05,0.45 H 31.9 v 0.8 h 0.35 v 0.45 l 0.9,-0.1 v 0.4 l 2.1,-0.05 v 0.4 l 1.25,-0.05 v -0.4 h -0.4 v -0.4 l -0.45,0.05 v -0.45 h -0.8 v -0.8 H 34.4 l -0.05,-0.45 h -0.4 m 4.15,-2.9 -0.45,0.05 v 0.35 l 0.45,-0.05 v -0.35 m -1.1,6.7 h -0.45 l 0.05,0.75 h 0.5 L 37,109.45 M 50.25,155.6 H 49 v 0.4 l -1.25,0.05 v -0.4 L 49,155.6 48.95,155.15 h 1.25 v -0.4 l 3.75,-0.2 v -0.4 L 59,154 v -0.5 l 1.25,-0.05 v 0.9 h 0.45 v 0.35 h 0.4 l 0.05,0.5 3.8,-0.1 -0.05,-0.5 1.65,-0.05 0.05,0.5 3,-0.15 v 0.4 l 3.35,-0.1 v 0.45 l 2.8,-0.1 v -0.5 l -1.25,0.15 v -0.4 h -1.25 l -0.05,-0.45 -1.55,0.05 V 154 l -6.75,0.25 v -0.4 l 6.75,-0.25 v 0.4 l 1.55,-0.05 v 0.4 h 1.25 l 0.05,0.45 1.25,-0.1 v 0.35 h 0.5 v 0.5 h 0.85 v 0.75 l 2.05,-0.05 0.05,0.9 h 0.45 v 0.45 H 79.2 v -0.45 h -1.25 l -0.05,-0.4 -1.25,0.05 v -0.5 L 75,156.45 v -0.4 l -2.5,0.05 v -0.4 l -2.9,0.05 v -0.45 l -3.4,0.15 v 0.45 l -0.85,0.05 v 0.4 H 64.5 v -0.4 l -3.75,0.1 V 155.6 H 60.3 v -0.4 h -0.4 l -0.05,-0.5 h -0.4 v -0.35 l -2.1,0.1 v 0.4 l -7.15,0.3 0.05,0.45 m -4.65,-0.75 v 0.4 l 0.85,-0.05 0.1,2.55 h 0.4 v 0.4 h 0.45 v -0.4 l 1.25,-0.05 v 0.4 l -1.25,0.05 0.15,1.7 h 0.4 v 0.8 l 0.4,-0.05 v 0.8 h 0.45 l 0.05,0.85 h 0.4 v 0.85 h 0.4 v 0.8 h 0.45 l 0.05,0.45 h 0.4 v 0.85 L 51,165.1 v 0.4 h 0.4 v 0.35 h 0.4 v 0.5 h 0.45 l 0.05,0.4 0.9,-0.05 v 0.45 h 0.3 v 0.4 h 0.85 l 0.1,0.4 0.75,-0.05 v 0.45 h 0.5 l 0.05,0.4 h 0.85 v 0.4 l 1.25,-0.05 v 0.45 l 2.1,-0.1 v 0.35 h 1.65 v 0.5 l 6.7,-0.25 v -0.45 l 1.25,-0.05 v -0.4 h 1.3 v -0.45 l 0.85,-0.05 v -0.4 h 0.85 l -0.05,-0.4 h 0.4 v -0.45 l 0.75,-0.05 -0.05,-0.4 h 1.25 v -0.9 h 0.45 l -0.05,-0.85 0.4,-0.05 v -0.4 l 0.4,-0.05 v -0.4 h 0.45 v -0.45 h 0.4 l -0.05,-0.9 h 0.45 v -0.35 l 1.65,-0.05 v 0.85 H 78.6 l 0.05,0.4 h -0.5 v 0.85 h -0.4 v 0.4 l -0.4,0.05 0.05,0.85 h -0.45 v 0.45 h -0.4 v 0.4 H 76.1 l 0.05,0.4 -0.35,0.1 v 0.45 l -0.4,0.05 0.05,0.4 h -0.5 v 0.4 H 74.6 v 0.45 h -0.4 v 0.4 l -2.05,0.05 v 0.45 H 71.3 v 0.4 l -0.45,0.05 0.05,0.4 -2.9,0.05 v 0.45 l -0.9,0.1 v -0.5 l -0.85,0.05 v 0.5 l -2.9,0.05 V 171 l -4.7,0.2 -0.05,-0.4 -2,0.05 v -0.4 H 55.25 V 170 l -0.4,0.05 v -0.4 H 54.5 V 169.2 H 54 v -0.4 h -0.7 l -0.05,-0.4 -0.45,0.05 V 168 h -0.4 l -0.1,-0.4 h -0.85 v -0.4 h -0.4 v -0.45 l -0.45,0.1 -0.05,-0.4 h -0.4 V 165.6 H 49.7 v -0.4 h -0.4 v -0.45 H 48.9 L 48.85,163.9 H 48.4 v -0.4 l -0.4,0.05 v -0.85 h -0.4 l -0.05,-1.6 H 47.1 v -0.85 h -0.4 v -0.4 h -0.5 l -0.1,-1.7 -0.4,0.05 -0.05,-1.25 h -0.4 V 156.1 H 44.8 l -0.05,-1.25 h 0.85 m 7.45,4.8 -1.35,0.05 -0.15,-0.5 h 0.5 v -0.35 l 1.55,-0.05 v 0.35 h -0.7 l 0.15,0.5 h 0.7 l -0.15,-0.5 2.1,-0.05 0.15,0.5 2.5,-0.05 v 0.4 l 3.45,-0.2 v 0.4 h 1.25 v -0.4 l 5.85,-0.2 -0.05,-0.4 3,-0.05 0.05,0.4 H 71 v 0.35 l -3.35,0.1 v 0.5 l -2.1,0.1 v 0.35 l -1.75,0.05 v -0.35 h -1.25 v 0.35 l -1.6,0.05 v -0.35 h -1.3 v -0.45 l -2.1,0.1 v -0.35 L 57.1,160 v 0.35 l -2.5,0.05 v -0.35 L 55.45,160 v -0.4 l -0.85,0.05 v 0.4 h -1.55 v -0.4 M 50.8,159.2 v -0.35 h 0.75 v 0.35 H 50.8 m -0.9,-0.65 0.9,-0.1 v 0.4 l -0.9,0.1 v -0.4 h -0.45 v -0.45 h 0.45 v 0.45 m 25.85,-3 v 0.4 h 0.5 v -0.4 h -0.5 m -1.85,3.9 -1.65,0.05 -0.05,-0.4 1.65,-0.05 0.05,0.4 m 0.8,0.35 v -0.35 l 0.85,-0.05 -0.05,-0.4 0.4,-0.1 -0.1,-0.45 h 1.35 l 0.05,0.45 h -0.85 l 0.05,0.4 -0.85,0.1 v 0.35 l -0.85,0.05 m 3.85,1.1 v -0.8 h 0.35 v -0.45 h 0.4 l -0.05,-0.8 h 0.5 l -0.1,-0.85 0.4,-0.05 v -0.4 h 0.85 l 0.15,2.5 h -0.9 v 0.8 l -0.35,0.05 0.05,0.75 h -0.5 v 0.5 H 78.1 l -0.05,-1.25 h 0.5 m 1.2,25.95 h -0.4 v 0.5 h 0.4 v -0.5"
     style="fill:#000000;fill-rule:evenodd;stroke:none"
     id="path2208" />
</svg>
